G04 #@! TF.FileFunction,Copper,L1,Top,Signal*
%FSLAX46Y46*%
G04 Gerber Fmt 4.6, Leading zero omitted, Abs format (unit mm)*
G04 Created by KiCad (PCBNEW 4.0.7) date 10/03/17 12:38:28*
%MOMM*%
%LPD*%
G01*
G04 APERTURE LIST*
%ADD10C,0.100000*%
%ADD11R,1.524000X1.998980*%
%ADD12O,1.524000X1.998980*%
%ADD13R,2.400000X2.400000*%
%ADD14C,2.400000*%
%ADD15R,3.500000X3.500000*%
%ADD16C,1.524000*%
%ADD17C,0.500000*%
%ADD18C,0.300000*%
%ADD19C,0.200000*%
%ADD20C,0.050000*%
G04 APERTURE END LIST*
D10*
D11*
X113290000Y-76338920D03*
D12*
X113290000Y-73301080D03*
X115830000Y-76338920D03*
X115830000Y-73301080D03*
X118370000Y-76338920D03*
X118370000Y-73301080D03*
X120910000Y-76338920D03*
X120910000Y-73301080D03*
X123450000Y-76338920D03*
X123450000Y-73301080D03*
X125990000Y-76338920D03*
X125990000Y-73301080D03*
X128530000Y-76338920D03*
X128530000Y-73301080D03*
X131070000Y-76338920D03*
X131070000Y-73301080D03*
X133610000Y-76338920D03*
X133610000Y-73301080D03*
X136150000Y-76338920D03*
X136150000Y-73301080D03*
X138690000Y-76338920D03*
X138690000Y-73301080D03*
X141230000Y-76338920D03*
X141230000Y-73301080D03*
X143770000Y-76338920D03*
X143770000Y-73301080D03*
X146310000Y-76338920D03*
X146310000Y-73301080D03*
X148850000Y-76338920D03*
X148850000Y-73301080D03*
X151390000Y-76338920D03*
X151390000Y-73301080D03*
X153930000Y-76338920D03*
X153930000Y-73301080D03*
X156470000Y-76338920D03*
X156470000Y-73301080D03*
X159010000Y-76338920D03*
X159010000Y-73301080D03*
X161550000Y-76338920D03*
X161550000Y-73301080D03*
D13*
X115850000Y-122020000D03*
D14*
X120850000Y-122020000D03*
X125850000Y-122020000D03*
D13*
X132360000Y-122020000D03*
D14*
X137360000Y-122020000D03*
X142360000Y-122020000D03*
D13*
X148870000Y-122020000D03*
D14*
X153870000Y-122020000D03*
X158870000Y-122020000D03*
D13*
X111405000Y-83285000D03*
D14*
X111405000Y-88285000D03*
D15*
X108865000Y-111225000D03*
X108865000Y-117225000D03*
X113565000Y-114225000D03*
D16*
X143155000Y-92175000D03*
X140615000Y-92175000D03*
X138075000Y-92175000D03*
X135535000Y-92175000D03*
X132995000Y-92175000D03*
X130455000Y-92175000D03*
X130455000Y-104875000D03*
X132995000Y-104875000D03*
X135535000Y-104875000D03*
X138075000Y-104875000D03*
X140615000Y-104875000D03*
X143155000Y-104875000D03*
D17*
X113565000Y-114225000D02*
X111865000Y-114225000D01*
X111865000Y-114225000D02*
X108865000Y-111225000D01*
X140615000Y-104875000D02*
X140615000Y-115035000D01*
X139980000Y-115670000D02*
X137440000Y-115670000D01*
X140615000Y-115035000D02*
X139980000Y-115670000D01*
X137440000Y-115670000D02*
X137360000Y-115750000D01*
X137360000Y-115750000D02*
X137360000Y-122020000D01*
X143155000Y-104875000D02*
X143155000Y-115035000D01*
X153870000Y-115750000D02*
X153870000Y-122020000D01*
X153950000Y-115670000D02*
X153870000Y-115750000D01*
X143790000Y-115670000D02*
X153950000Y-115670000D01*
X143155000Y-115035000D02*
X143790000Y-115670000D01*
X132995000Y-104875000D02*
X132995000Y-115035000D01*
X120850000Y-115750000D02*
X120850000Y-122020000D01*
X120930000Y-115670000D02*
X120850000Y-115750000D01*
X132360000Y-115670000D02*
X120930000Y-115670000D01*
X132995000Y-115035000D02*
X132360000Y-115670000D01*
X118390000Y-122020000D02*
X115850000Y-122020000D01*
X118390000Y-114400000D02*
X118390000Y-122020000D01*
X118390000Y-122020000D02*
X118390000Y-124560000D01*
X118390000Y-124560000D02*
X132360000Y-124560000D01*
X135535000Y-113765000D02*
X135535000Y-124560000D01*
X135535000Y-124560000D02*
X134900000Y-124560000D01*
X132360000Y-124560000D02*
X132360000Y-122020000D01*
X148870000Y-124560000D02*
X148870000Y-122020000D01*
X134900000Y-124560000D02*
X148870000Y-124560000D01*
X132360000Y-124560000D02*
X134900000Y-124560000D01*
X111405000Y-83285000D02*
X117755000Y-83285000D01*
X118390000Y-83920000D02*
X118390000Y-114400000D01*
X117755000Y-83285000D02*
X118390000Y-83920000D01*
X115850000Y-114400000D02*
X118390000Y-114400000D01*
X135535000Y-113765000D02*
X135535000Y-104875000D01*
X113565000Y-114225000D02*
X115675000Y-114225000D01*
X115675000Y-114225000D02*
X115850000Y-114400000D01*
D18*
X137440000Y-115670000D02*
X137360000Y-115750000D01*
D19*
X128530000Y-73550000D02*
X128530000Y-73740000D01*
X128530000Y-73740000D02*
X129820000Y-75030000D01*
X135535000Y-78205000D02*
X135535000Y-92175000D01*
X129820000Y-78205000D02*
X135535000Y-78205000D01*
X129820000Y-75030000D02*
X129820000Y-78205000D01*
X132995000Y-92175000D02*
X132995000Y-80110000D01*
X127280000Y-75030000D02*
X125990000Y-73740000D01*
X127280000Y-80110000D02*
X127280000Y-75030000D01*
X132995000Y-80110000D02*
X127280000Y-80110000D01*
X125990000Y-73740000D02*
X125990000Y-73550000D01*
X140615000Y-92175000D02*
X140615000Y-78205000D01*
X153930000Y-78185000D02*
X153930000Y-76090000D01*
X153950000Y-78205000D02*
X153930000Y-78185000D01*
X140615000Y-78205000D02*
X153950000Y-78205000D01*
X156470000Y-76090000D02*
X156470000Y-80090000D01*
X143155000Y-80110000D02*
X143155000Y-92175000D01*
X156450000Y-80110000D02*
X143155000Y-80110000D01*
X156470000Y-80090000D02*
X156450000Y-80110000D01*
D20*
G36*
X162542929Y-71719670D02*
X162859083Y-71930917D01*
X163070330Y-72247071D01*
X163145000Y-72622464D01*
X163145000Y-77620000D01*
X163145480Y-77624877D01*
X163221600Y-78007560D01*
X163225333Y-78016572D01*
X163442106Y-78340996D01*
X163449004Y-78347894D01*
X163773428Y-78564667D01*
X163782440Y-78568400D01*
X164165123Y-78644520D01*
X164170000Y-78645000D01*
X168667536Y-78645000D01*
X169042929Y-78719670D01*
X169359083Y-78930917D01*
X169570330Y-79247071D01*
X169595000Y-79371096D01*
X169595000Y-119368904D01*
X169570330Y-119492929D01*
X169359083Y-119809083D01*
X169042929Y-120020330D01*
X168667536Y-120095000D01*
X163670000Y-120095000D01*
X163665123Y-120095480D01*
X163282440Y-120171600D01*
X163273428Y-120175333D01*
X162949004Y-120392106D01*
X162942106Y-120399004D01*
X162725333Y-120723428D01*
X162721600Y-120732440D01*
X162645480Y-121115123D01*
X162645000Y-121120000D01*
X162645000Y-126117536D01*
X162570330Y-126492929D01*
X162359083Y-126809083D01*
X162042929Y-127020330D01*
X161667536Y-127095000D01*
X113172464Y-127095000D01*
X112797071Y-127020330D01*
X112480917Y-126809083D01*
X112269670Y-126492929D01*
X112195000Y-126117536D01*
X112195000Y-121120000D01*
X112194520Y-121115123D01*
X112118400Y-120732440D01*
X112114667Y-120723428D01*
X111897894Y-120399004D01*
X111890996Y-120392106D01*
X111566572Y-120175333D01*
X111557560Y-120171600D01*
X111174877Y-120095480D01*
X111170000Y-120095000D01*
X106672464Y-120095000D01*
X106297071Y-120020330D01*
X105980917Y-119809083D01*
X105769670Y-119492929D01*
X105695000Y-119117536D01*
X105695000Y-115475000D01*
X106834613Y-115475000D01*
X106834613Y-118975000D01*
X106853788Y-119076909D01*
X106914016Y-119170506D01*
X107005914Y-119233296D01*
X107115000Y-119255387D01*
X110615000Y-119255387D01*
X110716909Y-119236212D01*
X110810506Y-119175984D01*
X110873296Y-119084086D01*
X110895387Y-118975000D01*
X110895387Y-115475000D01*
X110876212Y-115373091D01*
X110815984Y-115279494D01*
X110724086Y-115216704D01*
X110615000Y-115194613D01*
X107115000Y-115194613D01*
X107013091Y-115213788D01*
X106919494Y-115274016D01*
X106856704Y-115365914D01*
X106834613Y-115475000D01*
X105695000Y-115475000D01*
X105695000Y-109622464D01*
X105724332Y-109475000D01*
X106834613Y-109475000D01*
X106834613Y-112975000D01*
X106853788Y-113076909D01*
X106914016Y-113170506D01*
X107005914Y-113233296D01*
X107115000Y-113255387D01*
X110152925Y-113255387D01*
X111493769Y-114596231D01*
X111534613Y-114623522D01*
X111534613Y-115975000D01*
X111553788Y-116076909D01*
X111614016Y-116170506D01*
X111705914Y-116233296D01*
X111815000Y-116255387D01*
X115315000Y-116255387D01*
X115416909Y-116236212D01*
X115510506Y-116175984D01*
X115573296Y-116084086D01*
X115595387Y-115975000D01*
X115595387Y-114849153D01*
X115649091Y-114885037D01*
X115850000Y-114925000D01*
X117865000Y-114925000D01*
X117865000Y-121495000D01*
X117330387Y-121495000D01*
X117330387Y-120820000D01*
X117311212Y-120718091D01*
X117250984Y-120624494D01*
X117159086Y-120561704D01*
X117050000Y-120539613D01*
X114650000Y-120539613D01*
X114548091Y-120558788D01*
X114454494Y-120619016D01*
X114391704Y-120710914D01*
X114369613Y-120820000D01*
X114369613Y-123220000D01*
X114388788Y-123321909D01*
X114449016Y-123415506D01*
X114540914Y-123478296D01*
X114650000Y-123500387D01*
X117050000Y-123500387D01*
X117151909Y-123481212D01*
X117245506Y-123420984D01*
X117308296Y-123329086D01*
X117330387Y-123220000D01*
X117330387Y-122545000D01*
X117865000Y-122545000D01*
X117865000Y-124560000D01*
X117904963Y-124760909D01*
X118018769Y-124931231D01*
X118189091Y-125045037D01*
X118390000Y-125085000D01*
X148870000Y-125085000D01*
X149070909Y-125045037D01*
X149241231Y-124931231D01*
X149355037Y-124760909D01*
X149395000Y-124560000D01*
X149395000Y-123500387D01*
X150070000Y-123500387D01*
X150171909Y-123481212D01*
X150265506Y-123420984D01*
X150328296Y-123329086D01*
X150350387Y-123220000D01*
X150350387Y-120820000D01*
X150331212Y-120718091D01*
X150270984Y-120624494D01*
X150179086Y-120561704D01*
X150070000Y-120539613D01*
X147670000Y-120539613D01*
X147568091Y-120558788D01*
X147474494Y-120619016D01*
X147411704Y-120710914D01*
X147389613Y-120820000D01*
X147389613Y-123220000D01*
X147408788Y-123321909D01*
X147469016Y-123415506D01*
X147560914Y-123478296D01*
X147670000Y-123500387D01*
X148345000Y-123500387D01*
X148345000Y-124035000D01*
X136060000Y-124035000D01*
X136060000Y-122736259D01*
X136108827Y-122854429D01*
X136523389Y-123269715D01*
X137065317Y-123494743D01*
X137652108Y-123495256D01*
X138194429Y-123271173D01*
X138609715Y-122856611D01*
X138834743Y-122314683D01*
X138834745Y-122312108D01*
X140884744Y-122312108D01*
X141108827Y-122854429D01*
X141523389Y-123269715D01*
X142065317Y-123494743D01*
X142652108Y-123495256D01*
X143194429Y-123271173D01*
X143609715Y-122856611D01*
X143834743Y-122314683D01*
X143835256Y-121727892D01*
X143611173Y-121185571D01*
X143196611Y-120770285D01*
X142654683Y-120545257D01*
X142067892Y-120544744D01*
X141525571Y-120768827D01*
X141110285Y-121183389D01*
X140885257Y-121725317D01*
X140884744Y-122312108D01*
X138834745Y-122312108D01*
X138835256Y-121727892D01*
X138611173Y-121185571D01*
X138196611Y-120770285D01*
X137885000Y-120640893D01*
X137885000Y-116195000D01*
X139980000Y-116195000D01*
X140180909Y-116155037D01*
X140351231Y-116041231D01*
X140986231Y-115406231D01*
X141100037Y-115235909D01*
X141140000Y-115035000D01*
X141140000Y-105780110D01*
X141201646Y-105754638D01*
X141493613Y-105463180D01*
X141651820Y-105082177D01*
X141651821Y-105080367D01*
X142117820Y-105080367D01*
X142275362Y-105461646D01*
X142566820Y-105753613D01*
X142630000Y-105779848D01*
X142630000Y-115035000D01*
X142669963Y-115235909D01*
X142783769Y-115406231D01*
X143418769Y-116041231D01*
X143589091Y-116155037D01*
X143790000Y-116195000D01*
X153345000Y-116195000D01*
X153345000Y-120640973D01*
X153035571Y-120768827D01*
X152620285Y-121183389D01*
X152395257Y-121725317D01*
X152394744Y-122312108D01*
X152618827Y-122854429D01*
X153033389Y-123269715D01*
X153575317Y-123494743D01*
X154162108Y-123495256D01*
X154704429Y-123271173D01*
X155119715Y-122856611D01*
X155344743Y-122314683D01*
X155344745Y-122312108D01*
X157394744Y-122312108D01*
X157618827Y-122854429D01*
X158033389Y-123269715D01*
X158575317Y-123494743D01*
X159162108Y-123495256D01*
X159704429Y-123271173D01*
X160119715Y-122856611D01*
X160344743Y-122314683D01*
X160345256Y-121727892D01*
X160121173Y-121185571D01*
X159706611Y-120770285D01*
X159164683Y-120545257D01*
X158577892Y-120544744D01*
X158035571Y-120768827D01*
X157620285Y-121183389D01*
X157395257Y-121725317D01*
X157394744Y-122312108D01*
X155344745Y-122312108D01*
X155345256Y-121727892D01*
X155121173Y-121185571D01*
X154706611Y-120770285D01*
X154395000Y-120640893D01*
X154395000Y-115930828D01*
X154435037Y-115870909D01*
X154475000Y-115670000D01*
X154435037Y-115469091D01*
X154321231Y-115298769D01*
X154150909Y-115184963D01*
X153950000Y-115145000D01*
X144007462Y-115145000D01*
X143680000Y-114817538D01*
X143680000Y-105780110D01*
X143741646Y-105754638D01*
X144033613Y-105463180D01*
X144191820Y-105082177D01*
X144192180Y-104669633D01*
X144034638Y-104288354D01*
X143743180Y-103996387D01*
X143362177Y-103838180D01*
X142949633Y-103837820D01*
X142568354Y-103995362D01*
X142276387Y-104286820D01*
X142118180Y-104667823D01*
X142117820Y-105080367D01*
X141651821Y-105080367D01*
X141652180Y-104669633D01*
X141494638Y-104288354D01*
X141203180Y-103996387D01*
X140822177Y-103838180D01*
X140409633Y-103837820D01*
X140028354Y-103995362D01*
X139736387Y-104286820D01*
X139578180Y-104667823D01*
X139577820Y-105080367D01*
X139735362Y-105461646D01*
X140026820Y-105753613D01*
X140090000Y-105779848D01*
X140090000Y-114817538D01*
X139762538Y-115145000D01*
X137440000Y-115145000D01*
X137239091Y-115184963D01*
X137068769Y-115298769D01*
X136988769Y-115378769D01*
X136874963Y-115549091D01*
X136835000Y-115750000D01*
X136835000Y-120640973D01*
X136525571Y-120768827D01*
X136110285Y-121183389D01*
X136060000Y-121304489D01*
X136060000Y-105780110D01*
X136121646Y-105754638D01*
X136413613Y-105463180D01*
X136571820Y-105082177D01*
X136571821Y-105080367D01*
X137037820Y-105080367D01*
X137195362Y-105461646D01*
X137486820Y-105753613D01*
X137867823Y-105911820D01*
X138280367Y-105912180D01*
X138661646Y-105754638D01*
X138953613Y-105463180D01*
X139111820Y-105082177D01*
X139112180Y-104669633D01*
X138954638Y-104288354D01*
X138663180Y-103996387D01*
X138282177Y-103838180D01*
X137869633Y-103837820D01*
X137488354Y-103995362D01*
X137196387Y-104286820D01*
X137038180Y-104667823D01*
X137037820Y-105080367D01*
X136571821Y-105080367D01*
X136572180Y-104669633D01*
X136414638Y-104288354D01*
X136123180Y-103996387D01*
X135742177Y-103838180D01*
X135329633Y-103837820D01*
X134948354Y-103995362D01*
X134656387Y-104286820D01*
X134498180Y-104667823D01*
X134497820Y-105080367D01*
X134655362Y-105461646D01*
X134946820Y-105753613D01*
X135010000Y-105779848D01*
X135010000Y-124035000D01*
X132885000Y-124035000D01*
X132885000Y-123500387D01*
X133560000Y-123500387D01*
X133661909Y-123481212D01*
X133755506Y-123420984D01*
X133818296Y-123329086D01*
X133840387Y-123220000D01*
X133840387Y-120820000D01*
X133821212Y-120718091D01*
X133760984Y-120624494D01*
X133669086Y-120561704D01*
X133560000Y-120539613D01*
X131160000Y-120539613D01*
X131058091Y-120558788D01*
X130964494Y-120619016D01*
X130901704Y-120710914D01*
X130879613Y-120820000D01*
X130879613Y-123220000D01*
X130898788Y-123321909D01*
X130959016Y-123415506D01*
X131050914Y-123478296D01*
X131160000Y-123500387D01*
X131835000Y-123500387D01*
X131835000Y-124035000D01*
X118915000Y-124035000D01*
X118915000Y-122312108D01*
X119374744Y-122312108D01*
X119598827Y-122854429D01*
X120013389Y-123269715D01*
X120555317Y-123494743D01*
X121142108Y-123495256D01*
X121684429Y-123271173D01*
X122099715Y-122856611D01*
X122324743Y-122314683D01*
X122324745Y-122312108D01*
X124374744Y-122312108D01*
X124598827Y-122854429D01*
X125013389Y-123269715D01*
X125555317Y-123494743D01*
X126142108Y-123495256D01*
X126684429Y-123271173D01*
X127099715Y-122856611D01*
X127324743Y-122314683D01*
X127325256Y-121727892D01*
X127101173Y-121185571D01*
X126686611Y-120770285D01*
X126144683Y-120545257D01*
X125557892Y-120544744D01*
X125015571Y-120768827D01*
X124600285Y-121183389D01*
X124375257Y-121725317D01*
X124374744Y-122312108D01*
X122324745Y-122312108D01*
X122325256Y-121727892D01*
X122101173Y-121185571D01*
X121686611Y-120770285D01*
X121375000Y-120640893D01*
X121375000Y-116195000D01*
X132360000Y-116195000D01*
X132560909Y-116155037D01*
X132731231Y-116041231D01*
X133366231Y-115406231D01*
X133480037Y-115235909D01*
X133520000Y-115035000D01*
X133520000Y-105780110D01*
X133581646Y-105754638D01*
X133873613Y-105463180D01*
X134031820Y-105082177D01*
X134032180Y-104669633D01*
X133874638Y-104288354D01*
X133583180Y-103996387D01*
X133202177Y-103838180D01*
X132789633Y-103837820D01*
X132408354Y-103995362D01*
X132116387Y-104286820D01*
X131958180Y-104667823D01*
X131957820Y-105080367D01*
X132115362Y-105461646D01*
X132406820Y-105753613D01*
X132470000Y-105779848D01*
X132470000Y-114817538D01*
X132142538Y-115145000D01*
X120930000Y-115145000D01*
X120729091Y-115184963D01*
X120558769Y-115298769D01*
X120478769Y-115378769D01*
X120364963Y-115549091D01*
X120325000Y-115750000D01*
X120325000Y-120640973D01*
X120015571Y-120768827D01*
X119600285Y-121183389D01*
X119375257Y-121725317D01*
X119374744Y-122312108D01*
X118915000Y-122312108D01*
X118915000Y-105080367D01*
X129417820Y-105080367D01*
X129575362Y-105461646D01*
X129866820Y-105753613D01*
X130247823Y-105911820D01*
X130660367Y-105912180D01*
X131041646Y-105754638D01*
X131333613Y-105463180D01*
X131491820Y-105082177D01*
X131492180Y-104669633D01*
X131334638Y-104288354D01*
X131043180Y-103996387D01*
X130662177Y-103838180D01*
X130249633Y-103837820D01*
X129868354Y-103995362D01*
X129576387Y-104286820D01*
X129418180Y-104667823D01*
X129417820Y-105080367D01*
X118915000Y-105080367D01*
X118915000Y-92380367D01*
X129417820Y-92380367D01*
X129575362Y-92761646D01*
X129866820Y-93053613D01*
X130247823Y-93211820D01*
X130660367Y-93212180D01*
X131041646Y-93054638D01*
X131333613Y-92763180D01*
X131491820Y-92382177D01*
X131492180Y-91969633D01*
X131334638Y-91588354D01*
X131043180Y-91296387D01*
X130662177Y-91138180D01*
X130249633Y-91137820D01*
X129868354Y-91295362D01*
X129576387Y-91586820D01*
X129418180Y-91967823D01*
X129417820Y-92380367D01*
X118915000Y-92380367D01*
X118915000Y-83920000D01*
X118875037Y-83719091D01*
X118761231Y-83548769D01*
X118126231Y-82913769D01*
X117955909Y-82799963D01*
X117755000Y-82760000D01*
X112885387Y-82760000D01*
X112885387Y-82085000D01*
X112866212Y-81983091D01*
X112805984Y-81889494D01*
X112714086Y-81826704D01*
X112605000Y-81804613D01*
X110205000Y-81804613D01*
X110103091Y-81823788D01*
X110009494Y-81884016D01*
X109946704Y-81975914D01*
X109924613Y-82085000D01*
X109924613Y-84485000D01*
X109943788Y-84586909D01*
X110004016Y-84680506D01*
X110095914Y-84743296D01*
X110205000Y-84765387D01*
X112605000Y-84765387D01*
X112706909Y-84746212D01*
X112800506Y-84685984D01*
X112863296Y-84594086D01*
X112885387Y-84485000D01*
X112885387Y-83810000D01*
X117537538Y-83810000D01*
X117865000Y-84137462D01*
X117865000Y-113875000D01*
X116067462Y-113875000D01*
X116046231Y-113853769D01*
X115875909Y-113739963D01*
X115675000Y-113700000D01*
X115595387Y-113700000D01*
X115595387Y-112475000D01*
X115576212Y-112373091D01*
X115515984Y-112279494D01*
X115424086Y-112216704D01*
X115315000Y-112194613D01*
X111815000Y-112194613D01*
X111713091Y-112213788D01*
X111619494Y-112274016D01*
X111556704Y-112365914D01*
X111534613Y-112475000D01*
X111534613Y-113152151D01*
X110895387Y-112512925D01*
X110895387Y-109475000D01*
X110876212Y-109373091D01*
X110815984Y-109279494D01*
X110724086Y-109216704D01*
X110615000Y-109194613D01*
X107115000Y-109194613D01*
X107013091Y-109213788D01*
X106919494Y-109274016D01*
X106856704Y-109365914D01*
X106834613Y-109475000D01*
X105724332Y-109475000D01*
X105769670Y-109247071D01*
X105980917Y-108930917D01*
X106297071Y-108719670D01*
X106672464Y-108645000D01*
X109670000Y-108645000D01*
X109674877Y-108644520D01*
X110057560Y-108568400D01*
X110066572Y-108564667D01*
X110390996Y-108347894D01*
X110397894Y-108340996D01*
X110614667Y-108016572D01*
X110618400Y-108007560D01*
X110694520Y-107624877D01*
X110695000Y-107620000D01*
X110695000Y-91620000D01*
X110694520Y-91615123D01*
X110618400Y-91232440D01*
X110614667Y-91223428D01*
X110397894Y-90899004D01*
X110390996Y-90892106D01*
X110066572Y-90675333D01*
X110057560Y-90671600D01*
X109674877Y-90595480D01*
X109670000Y-90595000D01*
X106672464Y-90595000D01*
X106297071Y-90520330D01*
X105980917Y-90309083D01*
X105769670Y-89992929D01*
X105695000Y-89617536D01*
X105695000Y-88577108D01*
X109929744Y-88577108D01*
X110153827Y-89119429D01*
X110568389Y-89534715D01*
X111110317Y-89759743D01*
X111697108Y-89760256D01*
X112239429Y-89536173D01*
X112654715Y-89121611D01*
X112879743Y-88579683D01*
X112880256Y-87992892D01*
X112656173Y-87450571D01*
X112241611Y-87035285D01*
X111699683Y-86810257D01*
X111112892Y-86809744D01*
X110570571Y-87033827D01*
X110155285Y-87448389D01*
X109930257Y-87990317D01*
X109929744Y-88577108D01*
X105695000Y-88577108D01*
X105695000Y-79622464D01*
X105769670Y-79247071D01*
X105980917Y-78930917D01*
X106297071Y-78719670D01*
X106672464Y-78645000D01*
X111170000Y-78645000D01*
X111174877Y-78644520D01*
X111557560Y-78568400D01*
X111566572Y-78564667D01*
X111890996Y-78347894D01*
X111897894Y-78340996D01*
X112114667Y-78016572D01*
X112118400Y-78007560D01*
X112194520Y-77624877D01*
X112195000Y-77620000D01*
X112195000Y-75339430D01*
X112247613Y-75339430D01*
X112247613Y-77338410D01*
X112266788Y-77440319D01*
X112327016Y-77533916D01*
X112418914Y-77596706D01*
X112528000Y-77618797D01*
X114052000Y-77618797D01*
X114153909Y-77599622D01*
X114247506Y-77539394D01*
X114310296Y-77447496D01*
X114332387Y-77338410D01*
X114332387Y-76076461D01*
X114793000Y-76076461D01*
X114793000Y-76601379D01*
X114871937Y-76998222D01*
X115096730Y-77334649D01*
X115433157Y-77559442D01*
X115830000Y-77638379D01*
X116226843Y-77559442D01*
X116563270Y-77334649D01*
X116788063Y-76998222D01*
X116867000Y-76601379D01*
X116867000Y-76076461D01*
X117333000Y-76076461D01*
X117333000Y-76601379D01*
X117411937Y-76998222D01*
X117636730Y-77334649D01*
X117973157Y-77559442D01*
X118370000Y-77638379D01*
X118766843Y-77559442D01*
X119103270Y-77334649D01*
X119328063Y-76998222D01*
X119407000Y-76601379D01*
X119407000Y-76076461D01*
X119873000Y-76076461D01*
X119873000Y-76601379D01*
X119951937Y-76998222D01*
X120176730Y-77334649D01*
X120513157Y-77559442D01*
X120910000Y-77638379D01*
X121306843Y-77559442D01*
X121643270Y-77334649D01*
X121868063Y-76998222D01*
X121947000Y-76601379D01*
X121947000Y-76076461D01*
X121868063Y-75679618D01*
X121643270Y-75343191D01*
X121306843Y-75118398D01*
X120910000Y-75039461D01*
X120513157Y-75118398D01*
X120176730Y-75343191D01*
X119951937Y-75679618D01*
X119873000Y-76076461D01*
X119407000Y-76076461D01*
X119328063Y-75679618D01*
X119103270Y-75343191D01*
X118766843Y-75118398D01*
X118370000Y-75039461D01*
X117973157Y-75118398D01*
X117636730Y-75343191D01*
X117411937Y-75679618D01*
X117333000Y-76076461D01*
X116867000Y-76076461D01*
X116788063Y-75679618D01*
X116563270Y-75343191D01*
X116226843Y-75118398D01*
X115830000Y-75039461D01*
X115433157Y-75118398D01*
X115096730Y-75343191D01*
X114871937Y-75679618D01*
X114793000Y-76076461D01*
X114332387Y-76076461D01*
X114332387Y-75339430D01*
X114313212Y-75237521D01*
X114252984Y-75143924D01*
X114161086Y-75081134D01*
X114052000Y-75059043D01*
X112528000Y-75059043D01*
X112426091Y-75078218D01*
X112332494Y-75138446D01*
X112269704Y-75230344D01*
X112247613Y-75339430D01*
X112195000Y-75339430D01*
X112195000Y-73038621D01*
X112253000Y-73038621D01*
X112253000Y-73563539D01*
X112331937Y-73960382D01*
X112556730Y-74296809D01*
X112893157Y-74521602D01*
X113290000Y-74600539D01*
X113686843Y-74521602D01*
X114023270Y-74296809D01*
X114248063Y-73960382D01*
X114327000Y-73563539D01*
X114327000Y-73038621D01*
X114793000Y-73038621D01*
X114793000Y-73563539D01*
X114871937Y-73960382D01*
X115096730Y-74296809D01*
X115433157Y-74521602D01*
X115830000Y-74600539D01*
X116226843Y-74521602D01*
X116563270Y-74296809D01*
X116788063Y-73960382D01*
X116867000Y-73563539D01*
X116867000Y-73038621D01*
X119873000Y-73038621D01*
X119873000Y-73563539D01*
X119951937Y-73960382D01*
X120176730Y-74296809D01*
X120513157Y-74521602D01*
X120910000Y-74600539D01*
X121306843Y-74521602D01*
X121643270Y-74296809D01*
X121868063Y-73960382D01*
X121947000Y-73563539D01*
X121947000Y-73038621D01*
X122413000Y-73038621D01*
X122413000Y-73563539D01*
X122491937Y-73960382D01*
X122716730Y-74296809D01*
X123053157Y-74521602D01*
X123450000Y-74600539D01*
X123846843Y-74521602D01*
X124183270Y-74296809D01*
X124408063Y-73960382D01*
X124487000Y-73563539D01*
X124487000Y-73038621D01*
X124953000Y-73038621D01*
X124953000Y-73563539D01*
X125031937Y-73960382D01*
X125256730Y-74296809D01*
X125593157Y-74521602D01*
X125990000Y-74600539D01*
X126265424Y-74545754D01*
X126905000Y-75185330D01*
X126905000Y-75615170D01*
X126723270Y-75343191D01*
X126386843Y-75118398D01*
X125990000Y-75039461D01*
X125593157Y-75118398D01*
X125256730Y-75343191D01*
X125031937Y-75679618D01*
X124953000Y-76076461D01*
X124953000Y-76601379D01*
X125031937Y-76998222D01*
X125256730Y-77334649D01*
X125593157Y-77559442D01*
X125990000Y-77638379D01*
X126386843Y-77559442D01*
X126723270Y-77334649D01*
X126905000Y-77062670D01*
X126905000Y-80110000D01*
X126933545Y-80253506D01*
X127014835Y-80375165D01*
X127136494Y-80456455D01*
X127280000Y-80485000D01*
X132620000Y-80485000D01*
X132620000Y-91207911D01*
X132408354Y-91295362D01*
X132116387Y-91586820D01*
X131958180Y-91967823D01*
X131957820Y-92380367D01*
X132115362Y-92761646D01*
X132406820Y-93053613D01*
X132787823Y-93211820D01*
X133200367Y-93212180D01*
X133581646Y-93054638D01*
X133873613Y-92763180D01*
X134031820Y-92382177D01*
X134031821Y-92380367D01*
X134497820Y-92380367D01*
X134655362Y-92761646D01*
X134946820Y-93053613D01*
X135327823Y-93211820D01*
X135740367Y-93212180D01*
X136121646Y-93054638D01*
X136413613Y-92763180D01*
X136571820Y-92382177D01*
X136571821Y-92380367D01*
X137037820Y-92380367D01*
X137195362Y-92761646D01*
X137486820Y-93053613D01*
X137867823Y-93211820D01*
X138280367Y-93212180D01*
X138661646Y-93054638D01*
X138953613Y-92763180D01*
X139111820Y-92382177D01*
X139111821Y-92380367D01*
X139577820Y-92380367D01*
X139735362Y-92761646D01*
X140026820Y-93053613D01*
X140407823Y-93211820D01*
X140820367Y-93212180D01*
X141201646Y-93054638D01*
X141493613Y-92763180D01*
X141651820Y-92382177D01*
X141651821Y-92380367D01*
X142117820Y-92380367D01*
X142275362Y-92761646D01*
X142566820Y-93053613D01*
X142947823Y-93211820D01*
X143360367Y-93212180D01*
X143741646Y-93054638D01*
X144033613Y-92763180D01*
X144191820Y-92382177D01*
X144192180Y-91969633D01*
X144034638Y-91588354D01*
X143743180Y-91296387D01*
X143530000Y-91207867D01*
X143530000Y-80485000D01*
X156450000Y-80485000D01*
X156593507Y-80456455D01*
X156715165Y-80375165D01*
X156735165Y-80355165D01*
X156816455Y-80233507D01*
X156845000Y-80090000D01*
X156845000Y-77563787D01*
X156866843Y-77559442D01*
X157203270Y-77334649D01*
X157428063Y-76998222D01*
X157507000Y-76601379D01*
X157507000Y-76076461D01*
X157973000Y-76076461D01*
X157973000Y-76601379D01*
X158051937Y-76998222D01*
X158276730Y-77334649D01*
X158613157Y-77559442D01*
X159010000Y-77638379D01*
X159406843Y-77559442D01*
X159743270Y-77334649D01*
X159968063Y-76998222D01*
X160047000Y-76601379D01*
X160047000Y-76076461D01*
X159968063Y-75679618D01*
X159743270Y-75343191D01*
X159406843Y-75118398D01*
X159010000Y-75039461D01*
X158613157Y-75118398D01*
X158276730Y-75343191D01*
X158051937Y-75679618D01*
X157973000Y-76076461D01*
X157507000Y-76076461D01*
X157428063Y-75679618D01*
X157203270Y-75343191D01*
X156866843Y-75118398D01*
X156470000Y-75039461D01*
X156073157Y-75118398D01*
X155736730Y-75343191D01*
X155511937Y-75679618D01*
X155433000Y-76076461D01*
X155433000Y-76601379D01*
X155511937Y-76998222D01*
X155736730Y-77334649D01*
X156073157Y-77559442D01*
X156095000Y-77563787D01*
X156095000Y-79735000D01*
X143155000Y-79735000D01*
X143011494Y-79763545D01*
X142889835Y-79844835D01*
X142808545Y-79966494D01*
X142780000Y-80110000D01*
X142780000Y-91207911D01*
X142568354Y-91295362D01*
X142276387Y-91586820D01*
X142118180Y-91967823D01*
X142117820Y-92380367D01*
X141651821Y-92380367D01*
X141652180Y-91969633D01*
X141494638Y-91588354D01*
X141203180Y-91296387D01*
X140990000Y-91207867D01*
X140990000Y-78580000D01*
X153950000Y-78580000D01*
X154093506Y-78551455D01*
X154215165Y-78470165D01*
X154296455Y-78348506D01*
X154325000Y-78205000D01*
X154305000Y-78104453D01*
X154305000Y-77563787D01*
X154326843Y-77559442D01*
X154663270Y-77334649D01*
X154888063Y-76998222D01*
X154967000Y-76601379D01*
X154967000Y-76076461D01*
X154888063Y-75679618D01*
X154663270Y-75343191D01*
X154326843Y-75118398D01*
X153930000Y-75039461D01*
X153533157Y-75118398D01*
X153196730Y-75343191D01*
X152971937Y-75679618D01*
X152893000Y-76076461D01*
X152893000Y-76601379D01*
X152971937Y-76998222D01*
X153196730Y-77334649D01*
X153533157Y-77559442D01*
X153555000Y-77563787D01*
X153555000Y-77830000D01*
X140615000Y-77830000D01*
X140471494Y-77858545D01*
X140349835Y-77939835D01*
X140268545Y-78061494D01*
X140240000Y-78205000D01*
X140240000Y-91207911D01*
X140028354Y-91295362D01*
X139736387Y-91586820D01*
X139578180Y-91967823D01*
X139577820Y-92380367D01*
X139111821Y-92380367D01*
X139112180Y-91969633D01*
X138954638Y-91588354D01*
X138663180Y-91296387D01*
X138282177Y-91138180D01*
X137869633Y-91137820D01*
X137488354Y-91295362D01*
X137196387Y-91586820D01*
X137038180Y-91967823D01*
X137037820Y-92380367D01*
X136571821Y-92380367D01*
X136572180Y-91969633D01*
X136414638Y-91588354D01*
X136123180Y-91296387D01*
X135742177Y-91138180D01*
X135329633Y-91137820D01*
X134948354Y-91295362D01*
X134656387Y-91586820D01*
X134498180Y-91967823D01*
X134497820Y-92380367D01*
X134031821Y-92380367D01*
X134032180Y-91969633D01*
X133874638Y-91588354D01*
X133583180Y-91296387D01*
X133370000Y-91207867D01*
X133370000Y-80110000D01*
X133341455Y-79966494D01*
X133260165Y-79844835D01*
X133138506Y-79763545D01*
X132995000Y-79735000D01*
X127655000Y-79735000D01*
X127655000Y-77122535D01*
X127796730Y-77334649D01*
X128133157Y-77559442D01*
X128530000Y-77638379D01*
X128926843Y-77559442D01*
X129263270Y-77334649D01*
X129488063Y-76998222D01*
X129567000Y-76601379D01*
X129567000Y-76076461D01*
X130033000Y-76076461D01*
X130033000Y-76601379D01*
X130111937Y-76998222D01*
X130336730Y-77334649D01*
X130673157Y-77559442D01*
X131070000Y-77638379D01*
X131466843Y-77559442D01*
X131803270Y-77334649D01*
X132028063Y-76998222D01*
X132107000Y-76601379D01*
X132107000Y-76076461D01*
X132573000Y-76076461D01*
X132573000Y-76601379D01*
X132651937Y-76998222D01*
X132876730Y-77334649D01*
X133213157Y-77559442D01*
X133610000Y-77638379D01*
X134006843Y-77559442D01*
X134343270Y-77334649D01*
X134568063Y-76998222D01*
X134647000Y-76601379D01*
X134647000Y-76076461D01*
X135113000Y-76076461D01*
X135113000Y-76601379D01*
X135191937Y-76998222D01*
X135416730Y-77334649D01*
X135753157Y-77559442D01*
X136150000Y-77638379D01*
X136546843Y-77559442D01*
X136883270Y-77334649D01*
X137108063Y-76998222D01*
X137187000Y-76601379D01*
X137187000Y-76076461D01*
X137653000Y-76076461D01*
X137653000Y-76601379D01*
X137731937Y-76998222D01*
X137956730Y-77334649D01*
X138293157Y-77559442D01*
X138690000Y-77638379D01*
X139086843Y-77559442D01*
X139423270Y-77334649D01*
X139648063Y-76998222D01*
X139727000Y-76601379D01*
X139727000Y-76076461D01*
X140193000Y-76076461D01*
X140193000Y-76601379D01*
X140271937Y-76998222D01*
X140496730Y-77334649D01*
X140833157Y-77559442D01*
X141230000Y-77638379D01*
X141626843Y-77559442D01*
X141963270Y-77334649D01*
X142188063Y-76998222D01*
X142267000Y-76601379D01*
X142267000Y-76076461D01*
X145273000Y-76076461D01*
X145273000Y-76601379D01*
X145351937Y-76998222D01*
X145576730Y-77334649D01*
X145913157Y-77559442D01*
X146310000Y-77638379D01*
X146706843Y-77559442D01*
X147043270Y-77334649D01*
X147268063Y-76998222D01*
X147347000Y-76601379D01*
X147347000Y-76076461D01*
X147813000Y-76076461D01*
X147813000Y-76601379D01*
X147891937Y-76998222D01*
X148116730Y-77334649D01*
X148453157Y-77559442D01*
X148850000Y-77638379D01*
X149246843Y-77559442D01*
X149583270Y-77334649D01*
X149808063Y-76998222D01*
X149887000Y-76601379D01*
X149887000Y-76076461D01*
X150353000Y-76076461D01*
X150353000Y-76601379D01*
X150431937Y-76998222D01*
X150656730Y-77334649D01*
X150993157Y-77559442D01*
X151390000Y-77638379D01*
X151786843Y-77559442D01*
X152123270Y-77334649D01*
X152348063Y-76998222D01*
X152427000Y-76601379D01*
X152427000Y-76076461D01*
X152348063Y-75679618D01*
X152123270Y-75343191D01*
X151786843Y-75118398D01*
X151390000Y-75039461D01*
X150993157Y-75118398D01*
X150656730Y-75343191D01*
X150431937Y-75679618D01*
X150353000Y-76076461D01*
X149887000Y-76076461D01*
X149808063Y-75679618D01*
X149583270Y-75343191D01*
X149246843Y-75118398D01*
X148850000Y-75039461D01*
X148453157Y-75118398D01*
X148116730Y-75343191D01*
X147891937Y-75679618D01*
X147813000Y-76076461D01*
X147347000Y-76076461D01*
X147268063Y-75679618D01*
X147043270Y-75343191D01*
X146706843Y-75118398D01*
X146310000Y-75039461D01*
X145913157Y-75118398D01*
X145576730Y-75343191D01*
X145351937Y-75679618D01*
X145273000Y-76076461D01*
X142267000Y-76076461D01*
X142188063Y-75679618D01*
X141963270Y-75343191D01*
X141626843Y-75118398D01*
X141230000Y-75039461D01*
X140833157Y-75118398D01*
X140496730Y-75343191D01*
X140271937Y-75679618D01*
X140193000Y-76076461D01*
X139727000Y-76076461D01*
X139648063Y-75679618D01*
X139423270Y-75343191D01*
X139086843Y-75118398D01*
X138690000Y-75039461D01*
X138293157Y-75118398D01*
X137956730Y-75343191D01*
X137731937Y-75679618D01*
X137653000Y-76076461D01*
X137187000Y-76076461D01*
X137108063Y-75679618D01*
X136883270Y-75343191D01*
X136546843Y-75118398D01*
X136150000Y-75039461D01*
X135753157Y-75118398D01*
X135416730Y-75343191D01*
X135191937Y-75679618D01*
X135113000Y-76076461D01*
X134647000Y-76076461D01*
X134568063Y-75679618D01*
X134343270Y-75343191D01*
X134006843Y-75118398D01*
X133610000Y-75039461D01*
X133213157Y-75118398D01*
X132876730Y-75343191D01*
X132651937Y-75679618D01*
X132573000Y-76076461D01*
X132107000Y-76076461D01*
X132028063Y-75679618D01*
X131803270Y-75343191D01*
X131466843Y-75118398D01*
X131070000Y-75039461D01*
X130673157Y-75118398D01*
X130336730Y-75343191D01*
X130111937Y-75679618D01*
X130033000Y-76076461D01*
X129567000Y-76076461D01*
X129488063Y-75679618D01*
X129263270Y-75343191D01*
X128926843Y-75118398D01*
X128530000Y-75039461D01*
X128133157Y-75118398D01*
X127796730Y-75343191D01*
X127655000Y-75555305D01*
X127655000Y-75030000D01*
X127626455Y-74886494D01*
X127545165Y-74764835D01*
X126865010Y-74084680D01*
X126948063Y-73960382D01*
X127027000Y-73563539D01*
X127027000Y-73038621D01*
X130033000Y-73038621D01*
X130033000Y-73563539D01*
X130111937Y-73960382D01*
X130336730Y-74296809D01*
X130673157Y-74521602D01*
X131070000Y-74600539D01*
X131466843Y-74521602D01*
X131803270Y-74296809D01*
X132028063Y-73960382D01*
X132107000Y-73563539D01*
X132107000Y-73038621D01*
X132573000Y-73038621D01*
X132573000Y-73563539D01*
X132651937Y-73960382D01*
X132876730Y-74296809D01*
X133213157Y-74521602D01*
X133610000Y-74600539D01*
X134006843Y-74521602D01*
X134343270Y-74296809D01*
X134568063Y-73960382D01*
X134647000Y-73563539D01*
X134647000Y-73038621D01*
X137653000Y-73038621D01*
X137653000Y-73563539D01*
X137731937Y-73960382D01*
X137956730Y-74296809D01*
X138293157Y-74521602D01*
X138690000Y-74600539D01*
X139086843Y-74521602D01*
X139423270Y-74296809D01*
X139648063Y-73960382D01*
X139727000Y-73563539D01*
X139727000Y-73038621D01*
X140193000Y-73038621D01*
X140193000Y-73563539D01*
X140271937Y-73960382D01*
X140496730Y-74296809D01*
X140833157Y-74521602D01*
X141230000Y-74600539D01*
X141626843Y-74521602D01*
X141963270Y-74296809D01*
X142188063Y-73960382D01*
X142267000Y-73563539D01*
X142267000Y-73038621D01*
X142733000Y-73038621D01*
X142733000Y-73563539D01*
X142811937Y-73960382D01*
X143036730Y-74296809D01*
X143373157Y-74521602D01*
X143770000Y-74600539D01*
X144166843Y-74521602D01*
X144503270Y-74296809D01*
X144728063Y-73960382D01*
X144807000Y-73563539D01*
X144807000Y-73038621D01*
X145273000Y-73038621D01*
X145273000Y-73563539D01*
X145351937Y-73960382D01*
X145576730Y-74296809D01*
X145913157Y-74521602D01*
X146310000Y-74600539D01*
X146706843Y-74521602D01*
X147043270Y-74296809D01*
X147268063Y-73960382D01*
X147347000Y-73563539D01*
X147347000Y-73038621D01*
X150353000Y-73038621D01*
X150353000Y-73563539D01*
X150431937Y-73960382D01*
X150656730Y-74296809D01*
X150993157Y-74521602D01*
X151390000Y-74600539D01*
X151786843Y-74521602D01*
X152123270Y-74296809D01*
X152348063Y-73960382D01*
X152427000Y-73563539D01*
X152427000Y-73038621D01*
X155433000Y-73038621D01*
X155433000Y-73563539D01*
X155511937Y-73960382D01*
X155736730Y-74296809D01*
X156073157Y-74521602D01*
X156470000Y-74600539D01*
X156866843Y-74521602D01*
X157203270Y-74296809D01*
X157428063Y-73960382D01*
X157507000Y-73563539D01*
X157507000Y-73038621D01*
X157973000Y-73038621D01*
X157973000Y-73563539D01*
X158051937Y-73960382D01*
X158276730Y-74296809D01*
X158613157Y-74521602D01*
X159010000Y-74600539D01*
X159406843Y-74521602D01*
X159743270Y-74296809D01*
X159968063Y-73960382D01*
X160047000Y-73563539D01*
X160047000Y-73038621D01*
X160513000Y-73038621D01*
X160513000Y-73563539D01*
X160591937Y-73960382D01*
X160816730Y-74296809D01*
X161153157Y-74521602D01*
X161550000Y-74600539D01*
X161946843Y-74521602D01*
X162283270Y-74296809D01*
X162508063Y-73960382D01*
X162587000Y-73563539D01*
X162587000Y-73038621D01*
X162508063Y-72641778D01*
X162283270Y-72305351D01*
X161946843Y-72080558D01*
X161550000Y-72001621D01*
X161153157Y-72080558D01*
X160816730Y-72305351D01*
X160591937Y-72641778D01*
X160513000Y-73038621D01*
X160047000Y-73038621D01*
X159968063Y-72641778D01*
X159743270Y-72305351D01*
X159406843Y-72080558D01*
X159010000Y-72001621D01*
X158613157Y-72080558D01*
X158276730Y-72305351D01*
X158051937Y-72641778D01*
X157973000Y-73038621D01*
X157507000Y-73038621D01*
X157428063Y-72641778D01*
X157203270Y-72305351D01*
X156866843Y-72080558D01*
X156470000Y-72001621D01*
X156073157Y-72080558D01*
X155736730Y-72305351D01*
X155511937Y-72641778D01*
X155433000Y-73038621D01*
X152427000Y-73038621D01*
X152348063Y-72641778D01*
X152123270Y-72305351D01*
X151786843Y-72080558D01*
X151390000Y-72001621D01*
X150993157Y-72080558D01*
X150656730Y-72305351D01*
X150431937Y-72641778D01*
X150353000Y-73038621D01*
X147347000Y-73038621D01*
X147268063Y-72641778D01*
X147043270Y-72305351D01*
X146706843Y-72080558D01*
X146310000Y-72001621D01*
X145913157Y-72080558D01*
X145576730Y-72305351D01*
X145351937Y-72641778D01*
X145273000Y-73038621D01*
X144807000Y-73038621D01*
X144728063Y-72641778D01*
X144503270Y-72305351D01*
X144166843Y-72080558D01*
X143770000Y-72001621D01*
X143373157Y-72080558D01*
X143036730Y-72305351D01*
X142811937Y-72641778D01*
X142733000Y-73038621D01*
X142267000Y-73038621D01*
X142188063Y-72641778D01*
X141963270Y-72305351D01*
X141626843Y-72080558D01*
X141230000Y-72001621D01*
X140833157Y-72080558D01*
X140496730Y-72305351D01*
X140271937Y-72641778D01*
X140193000Y-73038621D01*
X139727000Y-73038621D01*
X139648063Y-72641778D01*
X139423270Y-72305351D01*
X139086843Y-72080558D01*
X138690000Y-72001621D01*
X138293157Y-72080558D01*
X137956730Y-72305351D01*
X137731937Y-72641778D01*
X137653000Y-73038621D01*
X134647000Y-73038621D01*
X134568063Y-72641778D01*
X134343270Y-72305351D01*
X134006843Y-72080558D01*
X133610000Y-72001621D01*
X133213157Y-72080558D01*
X132876730Y-72305351D01*
X132651937Y-72641778D01*
X132573000Y-73038621D01*
X132107000Y-73038621D01*
X132028063Y-72641778D01*
X131803270Y-72305351D01*
X131466843Y-72080558D01*
X131070000Y-72001621D01*
X130673157Y-72080558D01*
X130336730Y-72305351D01*
X130111937Y-72641778D01*
X130033000Y-73038621D01*
X127027000Y-73038621D01*
X126948063Y-72641778D01*
X126723270Y-72305351D01*
X126386843Y-72080558D01*
X125990000Y-72001621D01*
X125593157Y-72080558D01*
X125256730Y-72305351D01*
X125031937Y-72641778D01*
X124953000Y-73038621D01*
X124487000Y-73038621D01*
X124408063Y-72641778D01*
X124183270Y-72305351D01*
X123846843Y-72080558D01*
X123450000Y-72001621D01*
X123053157Y-72080558D01*
X122716730Y-72305351D01*
X122491937Y-72641778D01*
X122413000Y-73038621D01*
X121947000Y-73038621D01*
X121868063Y-72641778D01*
X121643270Y-72305351D01*
X121306843Y-72080558D01*
X120910000Y-72001621D01*
X120513157Y-72080558D01*
X120176730Y-72305351D01*
X119951937Y-72641778D01*
X119873000Y-73038621D01*
X116867000Y-73038621D01*
X116788063Y-72641778D01*
X116563270Y-72305351D01*
X116226843Y-72080558D01*
X115830000Y-72001621D01*
X115433157Y-72080558D01*
X115096730Y-72305351D01*
X114871937Y-72641778D01*
X114793000Y-73038621D01*
X114327000Y-73038621D01*
X114248063Y-72641778D01*
X114023270Y-72305351D01*
X113686843Y-72080558D01*
X113290000Y-72001621D01*
X112893157Y-72080558D01*
X112556730Y-72305351D01*
X112331937Y-72641778D01*
X112253000Y-73038621D01*
X112195000Y-73038621D01*
X112195000Y-72622464D01*
X112269670Y-72247071D01*
X112480917Y-71930917D01*
X112797071Y-71719670D01*
X113172464Y-71645000D01*
X162167536Y-71645000D01*
X162542929Y-71719670D01*
X162542929Y-71719670D01*
G37*
X162542929Y-71719670D02*
X162859083Y-71930917D01*
X163070330Y-72247071D01*
X163145000Y-72622464D01*
X163145000Y-77620000D01*
X163145480Y-77624877D01*
X163221600Y-78007560D01*
X163225333Y-78016572D01*
X163442106Y-78340996D01*
X163449004Y-78347894D01*
X163773428Y-78564667D01*
X163782440Y-78568400D01*
X164165123Y-78644520D01*
X164170000Y-78645000D01*
X168667536Y-78645000D01*
X169042929Y-78719670D01*
X169359083Y-78930917D01*
X169570330Y-79247071D01*
X169595000Y-79371096D01*
X169595000Y-119368904D01*
X169570330Y-119492929D01*
X169359083Y-119809083D01*
X169042929Y-120020330D01*
X168667536Y-120095000D01*
X163670000Y-120095000D01*
X163665123Y-120095480D01*
X163282440Y-120171600D01*
X163273428Y-120175333D01*
X162949004Y-120392106D01*
X162942106Y-120399004D01*
X162725333Y-120723428D01*
X162721600Y-120732440D01*
X162645480Y-121115123D01*
X162645000Y-121120000D01*
X162645000Y-126117536D01*
X162570330Y-126492929D01*
X162359083Y-126809083D01*
X162042929Y-127020330D01*
X161667536Y-127095000D01*
X113172464Y-127095000D01*
X112797071Y-127020330D01*
X112480917Y-126809083D01*
X112269670Y-126492929D01*
X112195000Y-126117536D01*
X112195000Y-121120000D01*
X112194520Y-121115123D01*
X112118400Y-120732440D01*
X112114667Y-120723428D01*
X111897894Y-120399004D01*
X111890996Y-120392106D01*
X111566572Y-120175333D01*
X111557560Y-120171600D01*
X111174877Y-120095480D01*
X111170000Y-120095000D01*
X106672464Y-120095000D01*
X106297071Y-120020330D01*
X105980917Y-119809083D01*
X105769670Y-119492929D01*
X105695000Y-119117536D01*
X105695000Y-115475000D01*
X106834613Y-115475000D01*
X106834613Y-118975000D01*
X106853788Y-119076909D01*
X106914016Y-119170506D01*
X107005914Y-119233296D01*
X107115000Y-119255387D01*
X110615000Y-119255387D01*
X110716909Y-119236212D01*
X110810506Y-119175984D01*
X110873296Y-119084086D01*
X110895387Y-118975000D01*
X110895387Y-115475000D01*
X110876212Y-115373091D01*
X110815984Y-115279494D01*
X110724086Y-115216704D01*
X110615000Y-115194613D01*
X107115000Y-115194613D01*
X107013091Y-115213788D01*
X106919494Y-115274016D01*
X106856704Y-115365914D01*
X106834613Y-115475000D01*
X105695000Y-115475000D01*
X105695000Y-109622464D01*
X105724332Y-109475000D01*
X106834613Y-109475000D01*
X106834613Y-112975000D01*
X106853788Y-113076909D01*
X106914016Y-113170506D01*
X107005914Y-113233296D01*
X107115000Y-113255387D01*
X110152925Y-113255387D01*
X111493769Y-114596231D01*
X111534613Y-114623522D01*
X111534613Y-115975000D01*
X111553788Y-116076909D01*
X111614016Y-116170506D01*
X111705914Y-116233296D01*
X111815000Y-116255387D01*
X115315000Y-116255387D01*
X115416909Y-116236212D01*
X115510506Y-116175984D01*
X115573296Y-116084086D01*
X115595387Y-115975000D01*
X115595387Y-114849153D01*
X115649091Y-114885037D01*
X115850000Y-114925000D01*
X117865000Y-114925000D01*
X117865000Y-121495000D01*
X117330387Y-121495000D01*
X117330387Y-120820000D01*
X117311212Y-120718091D01*
X117250984Y-120624494D01*
X117159086Y-120561704D01*
X117050000Y-120539613D01*
X114650000Y-120539613D01*
X114548091Y-120558788D01*
X114454494Y-120619016D01*
X114391704Y-120710914D01*
X114369613Y-120820000D01*
X114369613Y-123220000D01*
X114388788Y-123321909D01*
X114449016Y-123415506D01*
X114540914Y-123478296D01*
X114650000Y-123500387D01*
X117050000Y-123500387D01*
X117151909Y-123481212D01*
X117245506Y-123420984D01*
X117308296Y-123329086D01*
X117330387Y-123220000D01*
X117330387Y-122545000D01*
X117865000Y-122545000D01*
X117865000Y-124560000D01*
X117904963Y-124760909D01*
X118018769Y-124931231D01*
X118189091Y-125045037D01*
X118390000Y-125085000D01*
X148870000Y-125085000D01*
X149070909Y-125045037D01*
X149241231Y-124931231D01*
X149355037Y-124760909D01*
X149395000Y-124560000D01*
X149395000Y-123500387D01*
X150070000Y-123500387D01*
X150171909Y-123481212D01*
X150265506Y-123420984D01*
X150328296Y-123329086D01*
X150350387Y-123220000D01*
X150350387Y-120820000D01*
X150331212Y-120718091D01*
X150270984Y-120624494D01*
X150179086Y-120561704D01*
X150070000Y-120539613D01*
X147670000Y-120539613D01*
X147568091Y-120558788D01*
X147474494Y-120619016D01*
X147411704Y-120710914D01*
X147389613Y-120820000D01*
X147389613Y-123220000D01*
X147408788Y-123321909D01*
X147469016Y-123415506D01*
X147560914Y-123478296D01*
X147670000Y-123500387D01*
X148345000Y-123500387D01*
X148345000Y-124035000D01*
X136060000Y-124035000D01*
X136060000Y-122736259D01*
X136108827Y-122854429D01*
X136523389Y-123269715D01*
X137065317Y-123494743D01*
X137652108Y-123495256D01*
X138194429Y-123271173D01*
X138609715Y-122856611D01*
X138834743Y-122314683D01*
X138834745Y-122312108D01*
X140884744Y-122312108D01*
X141108827Y-122854429D01*
X141523389Y-123269715D01*
X142065317Y-123494743D01*
X142652108Y-123495256D01*
X143194429Y-123271173D01*
X143609715Y-122856611D01*
X143834743Y-122314683D01*
X143835256Y-121727892D01*
X143611173Y-121185571D01*
X143196611Y-120770285D01*
X142654683Y-120545257D01*
X142067892Y-120544744D01*
X141525571Y-120768827D01*
X141110285Y-121183389D01*
X140885257Y-121725317D01*
X140884744Y-122312108D01*
X138834745Y-122312108D01*
X138835256Y-121727892D01*
X138611173Y-121185571D01*
X138196611Y-120770285D01*
X137885000Y-120640893D01*
X137885000Y-116195000D01*
X139980000Y-116195000D01*
X140180909Y-116155037D01*
X140351231Y-116041231D01*
X140986231Y-115406231D01*
X141100037Y-115235909D01*
X141140000Y-115035000D01*
X141140000Y-105780110D01*
X141201646Y-105754638D01*
X141493613Y-105463180D01*
X141651820Y-105082177D01*
X141651821Y-105080367D01*
X142117820Y-105080367D01*
X142275362Y-105461646D01*
X142566820Y-105753613D01*
X142630000Y-105779848D01*
X142630000Y-115035000D01*
X142669963Y-115235909D01*
X142783769Y-115406231D01*
X143418769Y-116041231D01*
X143589091Y-116155037D01*
X143790000Y-116195000D01*
X153345000Y-116195000D01*
X153345000Y-120640973D01*
X153035571Y-120768827D01*
X152620285Y-121183389D01*
X152395257Y-121725317D01*
X152394744Y-122312108D01*
X152618827Y-122854429D01*
X153033389Y-123269715D01*
X153575317Y-123494743D01*
X154162108Y-123495256D01*
X154704429Y-123271173D01*
X155119715Y-122856611D01*
X155344743Y-122314683D01*
X155344745Y-122312108D01*
X157394744Y-122312108D01*
X157618827Y-122854429D01*
X158033389Y-123269715D01*
X158575317Y-123494743D01*
X159162108Y-123495256D01*
X159704429Y-123271173D01*
X160119715Y-122856611D01*
X160344743Y-122314683D01*
X160345256Y-121727892D01*
X160121173Y-121185571D01*
X159706611Y-120770285D01*
X159164683Y-120545257D01*
X158577892Y-120544744D01*
X158035571Y-120768827D01*
X157620285Y-121183389D01*
X157395257Y-121725317D01*
X157394744Y-122312108D01*
X155344745Y-122312108D01*
X155345256Y-121727892D01*
X155121173Y-121185571D01*
X154706611Y-120770285D01*
X154395000Y-120640893D01*
X154395000Y-115930828D01*
X154435037Y-115870909D01*
X154475000Y-115670000D01*
X154435037Y-115469091D01*
X154321231Y-115298769D01*
X154150909Y-115184963D01*
X153950000Y-115145000D01*
X144007462Y-115145000D01*
X143680000Y-114817538D01*
X143680000Y-105780110D01*
X143741646Y-105754638D01*
X144033613Y-105463180D01*
X144191820Y-105082177D01*
X144192180Y-104669633D01*
X144034638Y-104288354D01*
X143743180Y-103996387D01*
X143362177Y-103838180D01*
X142949633Y-103837820D01*
X142568354Y-103995362D01*
X142276387Y-104286820D01*
X142118180Y-104667823D01*
X142117820Y-105080367D01*
X141651821Y-105080367D01*
X141652180Y-104669633D01*
X141494638Y-104288354D01*
X141203180Y-103996387D01*
X140822177Y-103838180D01*
X140409633Y-103837820D01*
X140028354Y-103995362D01*
X139736387Y-104286820D01*
X139578180Y-104667823D01*
X139577820Y-105080367D01*
X139735362Y-105461646D01*
X140026820Y-105753613D01*
X140090000Y-105779848D01*
X140090000Y-114817538D01*
X139762538Y-115145000D01*
X137440000Y-115145000D01*
X137239091Y-115184963D01*
X137068769Y-115298769D01*
X136988769Y-115378769D01*
X136874963Y-115549091D01*
X136835000Y-115750000D01*
X136835000Y-120640973D01*
X136525571Y-120768827D01*
X136110285Y-121183389D01*
X136060000Y-121304489D01*
X136060000Y-105780110D01*
X136121646Y-105754638D01*
X136413613Y-105463180D01*
X136571820Y-105082177D01*
X136571821Y-105080367D01*
X137037820Y-105080367D01*
X137195362Y-105461646D01*
X137486820Y-105753613D01*
X137867823Y-105911820D01*
X138280367Y-105912180D01*
X138661646Y-105754638D01*
X138953613Y-105463180D01*
X139111820Y-105082177D01*
X139112180Y-104669633D01*
X138954638Y-104288354D01*
X138663180Y-103996387D01*
X138282177Y-103838180D01*
X137869633Y-103837820D01*
X137488354Y-103995362D01*
X137196387Y-104286820D01*
X137038180Y-104667823D01*
X137037820Y-105080367D01*
X136571821Y-105080367D01*
X136572180Y-104669633D01*
X136414638Y-104288354D01*
X136123180Y-103996387D01*
X135742177Y-103838180D01*
X135329633Y-103837820D01*
X134948354Y-103995362D01*
X134656387Y-104286820D01*
X134498180Y-104667823D01*
X134497820Y-105080367D01*
X134655362Y-105461646D01*
X134946820Y-105753613D01*
X135010000Y-105779848D01*
X135010000Y-124035000D01*
X132885000Y-124035000D01*
X132885000Y-123500387D01*
X133560000Y-123500387D01*
X133661909Y-123481212D01*
X133755506Y-123420984D01*
X133818296Y-123329086D01*
X133840387Y-123220000D01*
X133840387Y-120820000D01*
X133821212Y-120718091D01*
X133760984Y-120624494D01*
X133669086Y-120561704D01*
X133560000Y-120539613D01*
X131160000Y-120539613D01*
X131058091Y-120558788D01*
X130964494Y-120619016D01*
X130901704Y-120710914D01*
X130879613Y-120820000D01*
X130879613Y-123220000D01*
X130898788Y-123321909D01*
X130959016Y-123415506D01*
X131050914Y-123478296D01*
X131160000Y-123500387D01*
X131835000Y-123500387D01*
X131835000Y-124035000D01*
X118915000Y-124035000D01*
X118915000Y-122312108D01*
X119374744Y-122312108D01*
X119598827Y-122854429D01*
X120013389Y-123269715D01*
X120555317Y-123494743D01*
X121142108Y-123495256D01*
X121684429Y-123271173D01*
X122099715Y-122856611D01*
X122324743Y-122314683D01*
X122324745Y-122312108D01*
X124374744Y-122312108D01*
X124598827Y-122854429D01*
X125013389Y-123269715D01*
X125555317Y-123494743D01*
X126142108Y-123495256D01*
X126684429Y-123271173D01*
X127099715Y-122856611D01*
X127324743Y-122314683D01*
X127325256Y-121727892D01*
X127101173Y-121185571D01*
X126686611Y-120770285D01*
X126144683Y-120545257D01*
X125557892Y-120544744D01*
X125015571Y-120768827D01*
X124600285Y-121183389D01*
X124375257Y-121725317D01*
X124374744Y-122312108D01*
X122324745Y-122312108D01*
X122325256Y-121727892D01*
X122101173Y-121185571D01*
X121686611Y-120770285D01*
X121375000Y-120640893D01*
X121375000Y-116195000D01*
X132360000Y-116195000D01*
X132560909Y-116155037D01*
X132731231Y-116041231D01*
X133366231Y-115406231D01*
X133480037Y-115235909D01*
X133520000Y-115035000D01*
X133520000Y-105780110D01*
X133581646Y-105754638D01*
X133873613Y-105463180D01*
X134031820Y-105082177D01*
X134032180Y-104669633D01*
X133874638Y-104288354D01*
X133583180Y-103996387D01*
X133202177Y-103838180D01*
X132789633Y-103837820D01*
X132408354Y-103995362D01*
X132116387Y-104286820D01*
X131958180Y-104667823D01*
X131957820Y-105080367D01*
X132115362Y-105461646D01*
X132406820Y-105753613D01*
X132470000Y-105779848D01*
X132470000Y-114817538D01*
X132142538Y-115145000D01*
X120930000Y-115145000D01*
X120729091Y-115184963D01*
X120558769Y-115298769D01*
X120478769Y-115378769D01*
X120364963Y-115549091D01*
X120325000Y-115750000D01*
X120325000Y-120640973D01*
X120015571Y-120768827D01*
X119600285Y-121183389D01*
X119375257Y-121725317D01*
X119374744Y-122312108D01*
X118915000Y-122312108D01*
X118915000Y-105080367D01*
X129417820Y-105080367D01*
X129575362Y-105461646D01*
X129866820Y-105753613D01*
X130247823Y-105911820D01*
X130660367Y-105912180D01*
X131041646Y-105754638D01*
X131333613Y-105463180D01*
X131491820Y-105082177D01*
X131492180Y-104669633D01*
X131334638Y-104288354D01*
X131043180Y-103996387D01*
X130662177Y-103838180D01*
X130249633Y-103837820D01*
X129868354Y-103995362D01*
X129576387Y-104286820D01*
X129418180Y-104667823D01*
X129417820Y-105080367D01*
X118915000Y-105080367D01*
X118915000Y-92380367D01*
X129417820Y-92380367D01*
X129575362Y-92761646D01*
X129866820Y-93053613D01*
X130247823Y-93211820D01*
X130660367Y-93212180D01*
X131041646Y-93054638D01*
X131333613Y-92763180D01*
X131491820Y-92382177D01*
X131492180Y-91969633D01*
X131334638Y-91588354D01*
X131043180Y-91296387D01*
X130662177Y-91138180D01*
X130249633Y-91137820D01*
X129868354Y-91295362D01*
X129576387Y-91586820D01*
X129418180Y-91967823D01*
X129417820Y-92380367D01*
X118915000Y-92380367D01*
X118915000Y-83920000D01*
X118875037Y-83719091D01*
X118761231Y-83548769D01*
X118126231Y-82913769D01*
X117955909Y-82799963D01*
X117755000Y-82760000D01*
X112885387Y-82760000D01*
X112885387Y-82085000D01*
X112866212Y-81983091D01*
X112805984Y-81889494D01*
X112714086Y-81826704D01*
X112605000Y-81804613D01*
X110205000Y-81804613D01*
X110103091Y-81823788D01*
X110009494Y-81884016D01*
X109946704Y-81975914D01*
X109924613Y-82085000D01*
X109924613Y-84485000D01*
X109943788Y-84586909D01*
X110004016Y-84680506D01*
X110095914Y-84743296D01*
X110205000Y-84765387D01*
X112605000Y-84765387D01*
X112706909Y-84746212D01*
X112800506Y-84685984D01*
X112863296Y-84594086D01*
X112885387Y-84485000D01*
X112885387Y-83810000D01*
X117537538Y-83810000D01*
X117865000Y-84137462D01*
X117865000Y-113875000D01*
X116067462Y-113875000D01*
X116046231Y-113853769D01*
X115875909Y-113739963D01*
X115675000Y-113700000D01*
X115595387Y-113700000D01*
X115595387Y-112475000D01*
X115576212Y-112373091D01*
X115515984Y-112279494D01*
X115424086Y-112216704D01*
X115315000Y-112194613D01*
X111815000Y-112194613D01*
X111713091Y-112213788D01*
X111619494Y-112274016D01*
X111556704Y-112365914D01*
X111534613Y-112475000D01*
X111534613Y-113152151D01*
X110895387Y-112512925D01*
X110895387Y-109475000D01*
X110876212Y-109373091D01*
X110815984Y-109279494D01*
X110724086Y-109216704D01*
X110615000Y-109194613D01*
X107115000Y-109194613D01*
X107013091Y-109213788D01*
X106919494Y-109274016D01*
X106856704Y-109365914D01*
X106834613Y-109475000D01*
X105724332Y-109475000D01*
X105769670Y-109247071D01*
X105980917Y-108930917D01*
X106297071Y-108719670D01*
X106672464Y-108645000D01*
X109670000Y-108645000D01*
X109674877Y-108644520D01*
X110057560Y-108568400D01*
X110066572Y-108564667D01*
X110390996Y-108347894D01*
X110397894Y-108340996D01*
X110614667Y-108016572D01*
X110618400Y-108007560D01*
X110694520Y-107624877D01*
X110695000Y-107620000D01*
X110695000Y-91620000D01*
X110694520Y-91615123D01*
X110618400Y-91232440D01*
X110614667Y-91223428D01*
X110397894Y-90899004D01*
X110390996Y-90892106D01*
X110066572Y-90675333D01*
X110057560Y-90671600D01*
X109674877Y-90595480D01*
X109670000Y-90595000D01*
X106672464Y-90595000D01*
X106297071Y-90520330D01*
X105980917Y-90309083D01*
X105769670Y-89992929D01*
X105695000Y-89617536D01*
X105695000Y-88577108D01*
X109929744Y-88577108D01*
X110153827Y-89119429D01*
X110568389Y-89534715D01*
X111110317Y-89759743D01*
X111697108Y-89760256D01*
X112239429Y-89536173D01*
X112654715Y-89121611D01*
X112879743Y-88579683D01*
X112880256Y-87992892D01*
X112656173Y-87450571D01*
X112241611Y-87035285D01*
X111699683Y-86810257D01*
X111112892Y-86809744D01*
X110570571Y-87033827D01*
X110155285Y-87448389D01*
X109930257Y-87990317D01*
X109929744Y-88577108D01*
X105695000Y-88577108D01*
X105695000Y-79622464D01*
X105769670Y-79247071D01*
X105980917Y-78930917D01*
X106297071Y-78719670D01*
X106672464Y-78645000D01*
X111170000Y-78645000D01*
X111174877Y-78644520D01*
X111557560Y-78568400D01*
X111566572Y-78564667D01*
X111890996Y-78347894D01*
X111897894Y-78340996D01*
X112114667Y-78016572D01*
X112118400Y-78007560D01*
X112194520Y-77624877D01*
X112195000Y-77620000D01*
X112195000Y-75339430D01*
X112247613Y-75339430D01*
X112247613Y-77338410D01*
X112266788Y-77440319D01*
X112327016Y-77533916D01*
X112418914Y-77596706D01*
X112528000Y-77618797D01*
X114052000Y-77618797D01*
X114153909Y-77599622D01*
X114247506Y-77539394D01*
X114310296Y-77447496D01*
X114332387Y-77338410D01*
X114332387Y-76076461D01*
X114793000Y-76076461D01*
X114793000Y-76601379D01*
X114871937Y-76998222D01*
X115096730Y-77334649D01*
X115433157Y-77559442D01*
X115830000Y-77638379D01*
X116226843Y-77559442D01*
X116563270Y-77334649D01*
X116788063Y-76998222D01*
X116867000Y-76601379D01*
X116867000Y-76076461D01*
X117333000Y-76076461D01*
X117333000Y-76601379D01*
X117411937Y-76998222D01*
X117636730Y-77334649D01*
X117973157Y-77559442D01*
X118370000Y-77638379D01*
X118766843Y-77559442D01*
X119103270Y-77334649D01*
X119328063Y-76998222D01*
X119407000Y-76601379D01*
X119407000Y-76076461D01*
X119873000Y-76076461D01*
X119873000Y-76601379D01*
X119951937Y-76998222D01*
X120176730Y-77334649D01*
X120513157Y-77559442D01*
X120910000Y-77638379D01*
X121306843Y-77559442D01*
X121643270Y-77334649D01*
X121868063Y-76998222D01*
X121947000Y-76601379D01*
X121947000Y-76076461D01*
X121868063Y-75679618D01*
X121643270Y-75343191D01*
X121306843Y-75118398D01*
X120910000Y-75039461D01*
X120513157Y-75118398D01*
X120176730Y-75343191D01*
X119951937Y-75679618D01*
X119873000Y-76076461D01*
X119407000Y-76076461D01*
X119328063Y-75679618D01*
X119103270Y-75343191D01*
X118766843Y-75118398D01*
X118370000Y-75039461D01*
X117973157Y-75118398D01*
X117636730Y-75343191D01*
X117411937Y-75679618D01*
X117333000Y-76076461D01*
X116867000Y-76076461D01*
X116788063Y-75679618D01*
X116563270Y-75343191D01*
X116226843Y-75118398D01*
X115830000Y-75039461D01*
X115433157Y-75118398D01*
X115096730Y-75343191D01*
X114871937Y-75679618D01*
X114793000Y-76076461D01*
X114332387Y-76076461D01*
X114332387Y-75339430D01*
X114313212Y-75237521D01*
X114252984Y-75143924D01*
X114161086Y-75081134D01*
X114052000Y-75059043D01*
X112528000Y-75059043D01*
X112426091Y-75078218D01*
X112332494Y-75138446D01*
X112269704Y-75230344D01*
X112247613Y-75339430D01*
X112195000Y-75339430D01*
X112195000Y-73038621D01*
X112253000Y-73038621D01*
X112253000Y-73563539D01*
X112331937Y-73960382D01*
X112556730Y-74296809D01*
X112893157Y-74521602D01*
X113290000Y-74600539D01*
X113686843Y-74521602D01*
X114023270Y-74296809D01*
X114248063Y-73960382D01*
X114327000Y-73563539D01*
X114327000Y-73038621D01*
X114793000Y-73038621D01*
X114793000Y-73563539D01*
X114871937Y-73960382D01*
X115096730Y-74296809D01*
X115433157Y-74521602D01*
X115830000Y-74600539D01*
X116226843Y-74521602D01*
X116563270Y-74296809D01*
X116788063Y-73960382D01*
X116867000Y-73563539D01*
X116867000Y-73038621D01*
X119873000Y-73038621D01*
X119873000Y-73563539D01*
X119951937Y-73960382D01*
X120176730Y-74296809D01*
X120513157Y-74521602D01*
X120910000Y-74600539D01*
X121306843Y-74521602D01*
X121643270Y-74296809D01*
X121868063Y-73960382D01*
X121947000Y-73563539D01*
X121947000Y-73038621D01*
X122413000Y-73038621D01*
X122413000Y-73563539D01*
X122491937Y-73960382D01*
X122716730Y-74296809D01*
X123053157Y-74521602D01*
X123450000Y-74600539D01*
X123846843Y-74521602D01*
X124183270Y-74296809D01*
X124408063Y-73960382D01*
X124487000Y-73563539D01*
X124487000Y-73038621D01*
X124953000Y-73038621D01*
X124953000Y-73563539D01*
X125031937Y-73960382D01*
X125256730Y-74296809D01*
X125593157Y-74521602D01*
X125990000Y-74600539D01*
X126265424Y-74545754D01*
X126905000Y-75185330D01*
X126905000Y-75615170D01*
X126723270Y-75343191D01*
X126386843Y-75118398D01*
X125990000Y-75039461D01*
X125593157Y-75118398D01*
X125256730Y-75343191D01*
X125031937Y-75679618D01*
X124953000Y-76076461D01*
X124953000Y-76601379D01*
X125031937Y-76998222D01*
X125256730Y-77334649D01*
X125593157Y-77559442D01*
X125990000Y-77638379D01*
X126386843Y-77559442D01*
X126723270Y-77334649D01*
X126905000Y-77062670D01*
X126905000Y-80110000D01*
X126933545Y-80253506D01*
X127014835Y-80375165D01*
X127136494Y-80456455D01*
X127280000Y-80485000D01*
X132620000Y-80485000D01*
X132620000Y-91207911D01*
X132408354Y-91295362D01*
X132116387Y-91586820D01*
X131958180Y-91967823D01*
X131957820Y-92380367D01*
X132115362Y-92761646D01*
X132406820Y-93053613D01*
X132787823Y-93211820D01*
X133200367Y-93212180D01*
X133581646Y-93054638D01*
X133873613Y-92763180D01*
X134031820Y-92382177D01*
X134031821Y-92380367D01*
X134497820Y-92380367D01*
X134655362Y-92761646D01*
X134946820Y-93053613D01*
X135327823Y-93211820D01*
X135740367Y-93212180D01*
X136121646Y-93054638D01*
X136413613Y-92763180D01*
X136571820Y-92382177D01*
X136571821Y-92380367D01*
X137037820Y-92380367D01*
X137195362Y-92761646D01*
X137486820Y-93053613D01*
X137867823Y-93211820D01*
X138280367Y-93212180D01*
X138661646Y-93054638D01*
X138953613Y-92763180D01*
X139111820Y-92382177D01*
X139111821Y-92380367D01*
X139577820Y-92380367D01*
X139735362Y-92761646D01*
X140026820Y-93053613D01*
X140407823Y-93211820D01*
X140820367Y-93212180D01*
X141201646Y-93054638D01*
X141493613Y-92763180D01*
X141651820Y-92382177D01*
X141651821Y-92380367D01*
X142117820Y-92380367D01*
X142275362Y-92761646D01*
X142566820Y-93053613D01*
X142947823Y-93211820D01*
X143360367Y-93212180D01*
X143741646Y-93054638D01*
X144033613Y-92763180D01*
X144191820Y-92382177D01*
X144192180Y-91969633D01*
X144034638Y-91588354D01*
X143743180Y-91296387D01*
X143530000Y-91207867D01*
X143530000Y-80485000D01*
X156450000Y-80485000D01*
X156593507Y-80456455D01*
X156715165Y-80375165D01*
X156735165Y-80355165D01*
X156816455Y-80233507D01*
X156845000Y-80090000D01*
X156845000Y-77563787D01*
X156866843Y-77559442D01*
X157203270Y-77334649D01*
X157428063Y-76998222D01*
X157507000Y-76601379D01*
X157507000Y-76076461D01*
X157973000Y-76076461D01*
X157973000Y-76601379D01*
X158051937Y-76998222D01*
X158276730Y-77334649D01*
X158613157Y-77559442D01*
X159010000Y-77638379D01*
X159406843Y-77559442D01*
X159743270Y-77334649D01*
X159968063Y-76998222D01*
X160047000Y-76601379D01*
X160047000Y-76076461D01*
X159968063Y-75679618D01*
X159743270Y-75343191D01*
X159406843Y-75118398D01*
X159010000Y-75039461D01*
X158613157Y-75118398D01*
X158276730Y-75343191D01*
X158051937Y-75679618D01*
X157973000Y-76076461D01*
X157507000Y-76076461D01*
X157428063Y-75679618D01*
X157203270Y-75343191D01*
X156866843Y-75118398D01*
X156470000Y-75039461D01*
X156073157Y-75118398D01*
X155736730Y-75343191D01*
X155511937Y-75679618D01*
X155433000Y-76076461D01*
X155433000Y-76601379D01*
X155511937Y-76998222D01*
X155736730Y-77334649D01*
X156073157Y-77559442D01*
X156095000Y-77563787D01*
X156095000Y-79735000D01*
X143155000Y-79735000D01*
X143011494Y-79763545D01*
X142889835Y-79844835D01*
X142808545Y-79966494D01*
X142780000Y-80110000D01*
X142780000Y-91207911D01*
X142568354Y-91295362D01*
X142276387Y-91586820D01*
X142118180Y-91967823D01*
X142117820Y-92380367D01*
X141651821Y-92380367D01*
X141652180Y-91969633D01*
X141494638Y-91588354D01*
X141203180Y-91296387D01*
X140990000Y-91207867D01*
X140990000Y-78580000D01*
X153950000Y-78580000D01*
X154093506Y-78551455D01*
X154215165Y-78470165D01*
X154296455Y-78348506D01*
X154325000Y-78205000D01*
X154305000Y-78104453D01*
X154305000Y-77563787D01*
X154326843Y-77559442D01*
X154663270Y-77334649D01*
X154888063Y-76998222D01*
X154967000Y-76601379D01*
X154967000Y-76076461D01*
X154888063Y-75679618D01*
X154663270Y-75343191D01*
X154326843Y-75118398D01*
X153930000Y-75039461D01*
X153533157Y-75118398D01*
X153196730Y-75343191D01*
X152971937Y-75679618D01*
X152893000Y-76076461D01*
X152893000Y-76601379D01*
X152971937Y-76998222D01*
X153196730Y-77334649D01*
X153533157Y-77559442D01*
X153555000Y-77563787D01*
X153555000Y-77830000D01*
X140615000Y-77830000D01*
X140471494Y-77858545D01*
X140349835Y-77939835D01*
X140268545Y-78061494D01*
X140240000Y-78205000D01*
X140240000Y-91207911D01*
X140028354Y-91295362D01*
X139736387Y-91586820D01*
X139578180Y-91967823D01*
X139577820Y-92380367D01*
X139111821Y-92380367D01*
X139112180Y-91969633D01*
X138954638Y-91588354D01*
X138663180Y-91296387D01*
X138282177Y-91138180D01*
X137869633Y-91137820D01*
X137488354Y-91295362D01*
X137196387Y-91586820D01*
X137038180Y-91967823D01*
X137037820Y-92380367D01*
X136571821Y-92380367D01*
X136572180Y-91969633D01*
X136414638Y-91588354D01*
X136123180Y-91296387D01*
X135742177Y-91138180D01*
X135329633Y-91137820D01*
X134948354Y-91295362D01*
X134656387Y-91586820D01*
X134498180Y-91967823D01*
X134497820Y-92380367D01*
X134031821Y-92380367D01*
X134032180Y-91969633D01*
X133874638Y-91588354D01*
X133583180Y-91296387D01*
X133370000Y-91207867D01*
X133370000Y-80110000D01*
X133341455Y-79966494D01*
X133260165Y-79844835D01*
X133138506Y-79763545D01*
X132995000Y-79735000D01*
X127655000Y-79735000D01*
X127655000Y-77122535D01*
X127796730Y-77334649D01*
X128133157Y-77559442D01*
X128530000Y-77638379D01*
X128926843Y-77559442D01*
X129263270Y-77334649D01*
X129488063Y-76998222D01*
X129567000Y-76601379D01*
X129567000Y-76076461D01*
X130033000Y-76076461D01*
X130033000Y-76601379D01*
X130111937Y-76998222D01*
X130336730Y-77334649D01*
X130673157Y-77559442D01*
X131070000Y-77638379D01*
X131466843Y-77559442D01*
X131803270Y-77334649D01*
X132028063Y-76998222D01*
X132107000Y-76601379D01*
X132107000Y-76076461D01*
X132573000Y-76076461D01*
X132573000Y-76601379D01*
X132651937Y-76998222D01*
X132876730Y-77334649D01*
X133213157Y-77559442D01*
X133610000Y-77638379D01*
X134006843Y-77559442D01*
X134343270Y-77334649D01*
X134568063Y-76998222D01*
X134647000Y-76601379D01*
X134647000Y-76076461D01*
X135113000Y-76076461D01*
X135113000Y-76601379D01*
X135191937Y-76998222D01*
X135416730Y-77334649D01*
X135753157Y-77559442D01*
X136150000Y-77638379D01*
X136546843Y-77559442D01*
X136883270Y-77334649D01*
X137108063Y-76998222D01*
X137187000Y-76601379D01*
X137187000Y-76076461D01*
X137653000Y-76076461D01*
X137653000Y-76601379D01*
X137731937Y-76998222D01*
X137956730Y-77334649D01*
X138293157Y-77559442D01*
X138690000Y-77638379D01*
X139086843Y-77559442D01*
X139423270Y-77334649D01*
X139648063Y-76998222D01*
X139727000Y-76601379D01*
X139727000Y-76076461D01*
X140193000Y-76076461D01*
X140193000Y-76601379D01*
X140271937Y-76998222D01*
X140496730Y-77334649D01*
X140833157Y-77559442D01*
X141230000Y-77638379D01*
X141626843Y-77559442D01*
X141963270Y-77334649D01*
X142188063Y-76998222D01*
X142267000Y-76601379D01*
X142267000Y-76076461D01*
X145273000Y-76076461D01*
X145273000Y-76601379D01*
X145351937Y-76998222D01*
X145576730Y-77334649D01*
X145913157Y-77559442D01*
X146310000Y-77638379D01*
X146706843Y-77559442D01*
X147043270Y-77334649D01*
X147268063Y-76998222D01*
X147347000Y-76601379D01*
X147347000Y-76076461D01*
X147813000Y-76076461D01*
X147813000Y-76601379D01*
X147891937Y-76998222D01*
X148116730Y-77334649D01*
X148453157Y-77559442D01*
X148850000Y-77638379D01*
X149246843Y-77559442D01*
X149583270Y-77334649D01*
X149808063Y-76998222D01*
X149887000Y-76601379D01*
X149887000Y-76076461D01*
X150353000Y-76076461D01*
X150353000Y-76601379D01*
X150431937Y-76998222D01*
X150656730Y-77334649D01*
X150993157Y-77559442D01*
X151390000Y-77638379D01*
X151786843Y-77559442D01*
X152123270Y-77334649D01*
X152348063Y-76998222D01*
X152427000Y-76601379D01*
X152427000Y-76076461D01*
X152348063Y-75679618D01*
X152123270Y-75343191D01*
X151786843Y-75118398D01*
X151390000Y-75039461D01*
X150993157Y-75118398D01*
X150656730Y-75343191D01*
X150431937Y-75679618D01*
X150353000Y-76076461D01*
X149887000Y-76076461D01*
X149808063Y-75679618D01*
X149583270Y-75343191D01*
X149246843Y-75118398D01*
X148850000Y-75039461D01*
X148453157Y-75118398D01*
X148116730Y-75343191D01*
X147891937Y-75679618D01*
X147813000Y-76076461D01*
X147347000Y-76076461D01*
X147268063Y-75679618D01*
X147043270Y-75343191D01*
X146706843Y-75118398D01*
X146310000Y-75039461D01*
X145913157Y-75118398D01*
X145576730Y-75343191D01*
X145351937Y-75679618D01*
X145273000Y-76076461D01*
X142267000Y-76076461D01*
X142188063Y-75679618D01*
X141963270Y-75343191D01*
X141626843Y-75118398D01*
X141230000Y-75039461D01*
X140833157Y-75118398D01*
X140496730Y-75343191D01*
X140271937Y-75679618D01*
X140193000Y-76076461D01*
X139727000Y-76076461D01*
X139648063Y-75679618D01*
X139423270Y-75343191D01*
X139086843Y-75118398D01*
X138690000Y-75039461D01*
X138293157Y-75118398D01*
X137956730Y-75343191D01*
X137731937Y-75679618D01*
X137653000Y-76076461D01*
X137187000Y-76076461D01*
X137108063Y-75679618D01*
X136883270Y-75343191D01*
X136546843Y-75118398D01*
X136150000Y-75039461D01*
X135753157Y-75118398D01*
X135416730Y-75343191D01*
X135191937Y-75679618D01*
X135113000Y-76076461D01*
X134647000Y-76076461D01*
X134568063Y-75679618D01*
X134343270Y-75343191D01*
X134006843Y-75118398D01*
X133610000Y-75039461D01*
X133213157Y-75118398D01*
X132876730Y-75343191D01*
X132651937Y-75679618D01*
X132573000Y-76076461D01*
X132107000Y-76076461D01*
X132028063Y-75679618D01*
X131803270Y-75343191D01*
X131466843Y-75118398D01*
X131070000Y-75039461D01*
X130673157Y-75118398D01*
X130336730Y-75343191D01*
X130111937Y-75679618D01*
X130033000Y-76076461D01*
X129567000Y-76076461D01*
X129488063Y-75679618D01*
X129263270Y-75343191D01*
X128926843Y-75118398D01*
X128530000Y-75039461D01*
X128133157Y-75118398D01*
X127796730Y-75343191D01*
X127655000Y-75555305D01*
X127655000Y-75030000D01*
X127626455Y-74886494D01*
X127545165Y-74764835D01*
X126865010Y-74084680D01*
X126948063Y-73960382D01*
X127027000Y-73563539D01*
X127027000Y-73038621D01*
X130033000Y-73038621D01*
X130033000Y-73563539D01*
X130111937Y-73960382D01*
X130336730Y-74296809D01*
X130673157Y-74521602D01*
X131070000Y-74600539D01*
X131466843Y-74521602D01*
X131803270Y-74296809D01*
X132028063Y-73960382D01*
X132107000Y-73563539D01*
X132107000Y-73038621D01*
X132573000Y-73038621D01*
X132573000Y-73563539D01*
X132651937Y-73960382D01*
X132876730Y-74296809D01*
X133213157Y-74521602D01*
X133610000Y-74600539D01*
X134006843Y-74521602D01*
X134343270Y-74296809D01*
X134568063Y-73960382D01*
X134647000Y-73563539D01*
X134647000Y-73038621D01*
X137653000Y-73038621D01*
X137653000Y-73563539D01*
X137731937Y-73960382D01*
X137956730Y-74296809D01*
X138293157Y-74521602D01*
X138690000Y-74600539D01*
X139086843Y-74521602D01*
X139423270Y-74296809D01*
X139648063Y-73960382D01*
X139727000Y-73563539D01*
X139727000Y-73038621D01*
X140193000Y-73038621D01*
X140193000Y-73563539D01*
X140271937Y-73960382D01*
X140496730Y-74296809D01*
X140833157Y-74521602D01*
X141230000Y-74600539D01*
X141626843Y-74521602D01*
X141963270Y-74296809D01*
X142188063Y-73960382D01*
X142267000Y-73563539D01*
X142267000Y-73038621D01*
X142733000Y-73038621D01*
X142733000Y-73563539D01*
X142811937Y-73960382D01*
X143036730Y-74296809D01*
X143373157Y-74521602D01*
X143770000Y-74600539D01*
X144166843Y-74521602D01*
X144503270Y-74296809D01*
X144728063Y-73960382D01*
X144807000Y-73563539D01*
X144807000Y-73038621D01*
X145273000Y-73038621D01*
X145273000Y-73563539D01*
X145351937Y-73960382D01*
X145576730Y-74296809D01*
X145913157Y-74521602D01*
X146310000Y-74600539D01*
X146706843Y-74521602D01*
X147043270Y-74296809D01*
X147268063Y-73960382D01*
X147347000Y-73563539D01*
X147347000Y-73038621D01*
X150353000Y-73038621D01*
X150353000Y-73563539D01*
X150431937Y-73960382D01*
X150656730Y-74296809D01*
X150993157Y-74521602D01*
X151390000Y-74600539D01*
X151786843Y-74521602D01*
X152123270Y-74296809D01*
X152348063Y-73960382D01*
X152427000Y-73563539D01*
X152427000Y-73038621D01*
X155433000Y-73038621D01*
X155433000Y-73563539D01*
X155511937Y-73960382D01*
X155736730Y-74296809D01*
X156073157Y-74521602D01*
X156470000Y-74600539D01*
X156866843Y-74521602D01*
X157203270Y-74296809D01*
X157428063Y-73960382D01*
X157507000Y-73563539D01*
X157507000Y-73038621D01*
X157973000Y-73038621D01*
X157973000Y-73563539D01*
X158051937Y-73960382D01*
X158276730Y-74296809D01*
X158613157Y-74521602D01*
X159010000Y-74600539D01*
X159406843Y-74521602D01*
X159743270Y-74296809D01*
X159968063Y-73960382D01*
X160047000Y-73563539D01*
X160047000Y-73038621D01*
X160513000Y-73038621D01*
X160513000Y-73563539D01*
X160591937Y-73960382D01*
X160816730Y-74296809D01*
X161153157Y-74521602D01*
X161550000Y-74600539D01*
X161946843Y-74521602D01*
X162283270Y-74296809D01*
X162508063Y-73960382D01*
X162587000Y-73563539D01*
X162587000Y-73038621D01*
X162508063Y-72641778D01*
X162283270Y-72305351D01*
X161946843Y-72080558D01*
X161550000Y-72001621D01*
X161153157Y-72080558D01*
X160816730Y-72305351D01*
X160591937Y-72641778D01*
X160513000Y-73038621D01*
X160047000Y-73038621D01*
X159968063Y-72641778D01*
X159743270Y-72305351D01*
X159406843Y-72080558D01*
X159010000Y-72001621D01*
X158613157Y-72080558D01*
X158276730Y-72305351D01*
X158051937Y-72641778D01*
X157973000Y-73038621D01*
X157507000Y-73038621D01*
X157428063Y-72641778D01*
X157203270Y-72305351D01*
X156866843Y-72080558D01*
X156470000Y-72001621D01*
X156073157Y-72080558D01*
X155736730Y-72305351D01*
X155511937Y-72641778D01*
X155433000Y-73038621D01*
X152427000Y-73038621D01*
X152348063Y-72641778D01*
X152123270Y-72305351D01*
X151786843Y-72080558D01*
X151390000Y-72001621D01*
X150993157Y-72080558D01*
X150656730Y-72305351D01*
X150431937Y-72641778D01*
X150353000Y-73038621D01*
X147347000Y-73038621D01*
X147268063Y-72641778D01*
X147043270Y-72305351D01*
X146706843Y-72080558D01*
X146310000Y-72001621D01*
X145913157Y-72080558D01*
X145576730Y-72305351D01*
X145351937Y-72641778D01*
X145273000Y-73038621D01*
X144807000Y-73038621D01*
X144728063Y-72641778D01*
X144503270Y-72305351D01*
X144166843Y-72080558D01*
X143770000Y-72001621D01*
X143373157Y-72080558D01*
X143036730Y-72305351D01*
X142811937Y-72641778D01*
X142733000Y-73038621D01*
X142267000Y-73038621D01*
X142188063Y-72641778D01*
X141963270Y-72305351D01*
X141626843Y-72080558D01*
X141230000Y-72001621D01*
X140833157Y-72080558D01*
X140496730Y-72305351D01*
X140271937Y-72641778D01*
X140193000Y-73038621D01*
X139727000Y-73038621D01*
X139648063Y-72641778D01*
X139423270Y-72305351D01*
X139086843Y-72080558D01*
X138690000Y-72001621D01*
X138293157Y-72080558D01*
X137956730Y-72305351D01*
X137731937Y-72641778D01*
X137653000Y-73038621D01*
X134647000Y-73038621D01*
X134568063Y-72641778D01*
X134343270Y-72305351D01*
X134006843Y-72080558D01*
X133610000Y-72001621D01*
X133213157Y-72080558D01*
X132876730Y-72305351D01*
X132651937Y-72641778D01*
X132573000Y-73038621D01*
X132107000Y-73038621D01*
X132028063Y-72641778D01*
X131803270Y-72305351D01*
X131466843Y-72080558D01*
X131070000Y-72001621D01*
X130673157Y-72080558D01*
X130336730Y-72305351D01*
X130111937Y-72641778D01*
X130033000Y-73038621D01*
X127027000Y-73038621D01*
X126948063Y-72641778D01*
X126723270Y-72305351D01*
X126386843Y-72080558D01*
X125990000Y-72001621D01*
X125593157Y-72080558D01*
X125256730Y-72305351D01*
X125031937Y-72641778D01*
X124953000Y-73038621D01*
X124487000Y-73038621D01*
X124408063Y-72641778D01*
X124183270Y-72305351D01*
X123846843Y-72080558D01*
X123450000Y-72001621D01*
X123053157Y-72080558D01*
X122716730Y-72305351D01*
X122491937Y-72641778D01*
X122413000Y-73038621D01*
X121947000Y-73038621D01*
X121868063Y-72641778D01*
X121643270Y-72305351D01*
X121306843Y-72080558D01*
X120910000Y-72001621D01*
X120513157Y-72080558D01*
X120176730Y-72305351D01*
X119951937Y-72641778D01*
X119873000Y-73038621D01*
X116867000Y-73038621D01*
X116788063Y-72641778D01*
X116563270Y-72305351D01*
X116226843Y-72080558D01*
X115830000Y-72001621D01*
X115433157Y-72080558D01*
X115096730Y-72305351D01*
X114871937Y-72641778D01*
X114793000Y-73038621D01*
X114327000Y-73038621D01*
X114248063Y-72641778D01*
X114023270Y-72305351D01*
X113686843Y-72080558D01*
X113290000Y-72001621D01*
X112893157Y-72080558D01*
X112556730Y-72305351D01*
X112331937Y-72641778D01*
X112253000Y-73038621D01*
X112195000Y-73038621D01*
X112195000Y-72622464D01*
X112269670Y-72247071D01*
X112480917Y-71930917D01*
X112797071Y-71719670D01*
X113172464Y-71645000D01*
X162167536Y-71645000D01*
X162542929Y-71719670D01*
M02*
