G04 #@! TF.FileFunction,Legend,Top*
%FSLAX46Y46*%
G04 Gerber Fmt 4.6, Leading zero omitted, Abs format (unit mm)*
G04 Created by KiCad (PCBNEW 4.0.7) date 10/03/17 12:38:28*
%MOMM*%
%LPD*%
G01*
G04 APERTURE LIST*
%ADD10C,0.100000*%
%ADD11C,0.300000*%
%ADD12C,0.304800*%
%ADD13C,0.120000*%
%ADD14C,0.150000*%
%ADD15C,0.125000*%
G04 APERTURE END LIST*
D10*
D11*
X130804286Y-113808571D02*
X129947143Y-113808571D01*
X130375715Y-113808571D02*
X130375715Y-112308571D01*
X130232858Y-112522857D01*
X130090000Y-112665714D01*
X129947143Y-112737143D01*
X131304286Y-112308571D02*
X132232857Y-112308571D01*
X131732857Y-112880000D01*
X131947143Y-112880000D01*
X132090000Y-112951429D01*
X132161429Y-113022857D01*
X132232857Y-113165714D01*
X132232857Y-113522857D01*
X132161429Y-113665714D01*
X132090000Y-113737143D01*
X131947143Y-113808571D01*
X131518571Y-113808571D01*
X131375714Y-113737143D01*
X131304286Y-113665714D01*
X107245714Y-115007143D02*
X107102857Y-115078571D01*
X106817143Y-115078571D01*
X106674286Y-115007143D01*
X106602857Y-114864286D01*
X106602857Y-114292857D01*
X106674286Y-114150000D01*
X106817143Y-114078571D01*
X107102857Y-114078571D01*
X107245714Y-114150000D01*
X107317143Y-114292857D01*
X107317143Y-114435714D01*
X106602857Y-114578571D01*
X153664286Y-113808571D02*
X152807143Y-113808571D01*
X153235715Y-113808571D02*
X153235715Y-112308571D01*
X153092858Y-112522857D01*
X152950000Y-112665714D01*
X152807143Y-112737143D01*
X154378571Y-113808571D02*
X154664286Y-113808571D01*
X154807143Y-113737143D01*
X154878571Y-113665714D01*
X155021429Y-113451429D01*
X155092857Y-113165714D01*
X155092857Y-112594286D01*
X155021429Y-112451429D01*
X154950000Y-112380000D01*
X154807143Y-112308571D01*
X154521429Y-112308571D01*
X154378571Y-112380000D01*
X154307143Y-112451429D01*
X154235714Y-112594286D01*
X154235714Y-112951429D01*
X154307143Y-113094286D01*
X154378571Y-113165714D01*
X154521429Y-113237143D01*
X154807143Y-113237143D01*
X154950000Y-113165714D01*
X155021429Y-113094286D01*
X155092857Y-112951429D01*
X121914286Y-113808571D02*
X121057143Y-113808571D01*
X121485715Y-113808571D02*
X121485715Y-112308571D01*
X121342858Y-112522857D01*
X121200000Y-112665714D01*
X121057143Y-112737143D01*
X122771429Y-112951429D02*
X122628571Y-112880000D01*
X122557143Y-112808571D01*
X122485714Y-112665714D01*
X122485714Y-112594286D01*
X122557143Y-112451429D01*
X122628571Y-112380000D01*
X122771429Y-112308571D01*
X123057143Y-112308571D01*
X123200000Y-112380000D01*
X123271429Y-112451429D01*
X123342857Y-112594286D01*
X123342857Y-112665714D01*
X123271429Y-112808571D01*
X123200000Y-112880000D01*
X123057143Y-112951429D01*
X122771429Y-112951429D01*
X122628571Y-113022857D01*
X122557143Y-113094286D01*
X122485714Y-113237143D01*
X122485714Y-113522857D01*
X122557143Y-113665714D01*
X122628571Y-113737143D01*
X122771429Y-113808571D01*
X123057143Y-113808571D01*
X123200000Y-113737143D01*
X123271429Y-113665714D01*
X123342857Y-113522857D01*
X123342857Y-113237143D01*
X123271429Y-113094286D01*
X123200000Y-113022857D01*
X123057143Y-112951429D01*
X112274286Y-107728571D02*
X112274286Y-108942857D01*
X112202857Y-109085714D01*
X112131429Y-109157143D01*
X111988572Y-109228571D01*
X111774286Y-109228571D01*
X111631429Y-109157143D01*
X112274286Y-108657143D02*
X112131429Y-108728571D01*
X111845715Y-108728571D01*
X111702857Y-108657143D01*
X111631429Y-108585714D01*
X111560000Y-108442857D01*
X111560000Y-108014286D01*
X111631429Y-107871429D01*
X111702857Y-107800000D01*
X111845715Y-107728571D01*
X112131429Y-107728571D01*
X112274286Y-107800000D01*
X112988572Y-107728571D02*
X112988572Y-108728571D01*
X112988572Y-107871429D02*
X113060000Y-107800000D01*
X113202858Y-107728571D01*
X113417143Y-107728571D01*
X113560000Y-107800000D01*
X113631429Y-107942857D01*
X113631429Y-108728571D01*
X114988572Y-108728571D02*
X114988572Y-107228571D01*
X114988572Y-108657143D02*
X114845715Y-108728571D01*
X114560001Y-108728571D01*
X114417143Y-108657143D01*
X114345715Y-108585714D01*
X114274286Y-108442857D01*
X114274286Y-108014286D01*
X114345715Y-107871429D01*
X114417143Y-107800000D01*
X114560001Y-107728571D01*
X114845715Y-107728571D01*
X114988572Y-107800000D01*
X149802858Y-120158571D02*
X149802858Y-118658571D01*
X150160001Y-118658571D01*
X150374286Y-118730000D01*
X150517144Y-118872857D01*
X150588572Y-119015714D01*
X150660001Y-119301429D01*
X150660001Y-119515714D01*
X150588572Y-119801429D01*
X150517144Y-119944286D01*
X150374286Y-120087143D01*
X150160001Y-120158571D01*
X149802858Y-120158571D01*
X151231429Y-119730000D02*
X151945715Y-119730000D01*
X151088572Y-120158571D02*
X151588572Y-118658571D01*
X152088572Y-120158571D01*
X152374286Y-118658571D02*
X153231429Y-118658571D01*
X152802858Y-120158571D02*
X152802858Y-118658571D01*
X138372858Y-120158571D02*
X138372858Y-118658571D01*
X138730001Y-118658571D01*
X138944286Y-118730000D01*
X139087144Y-118872857D01*
X139158572Y-119015714D01*
X139230001Y-119301429D01*
X139230001Y-119515714D01*
X139158572Y-119801429D01*
X139087144Y-119944286D01*
X138944286Y-120087143D01*
X138730001Y-120158571D01*
X138372858Y-120158571D01*
X139801429Y-119730000D02*
X140515715Y-119730000D01*
X139658572Y-120158571D02*
X140158572Y-118658571D01*
X140658572Y-120158571D01*
X140944286Y-118658571D02*
X141801429Y-118658571D01*
X141372858Y-120158571D02*
X141372858Y-118658571D01*
X121862858Y-120158571D02*
X121862858Y-118658571D01*
X122220001Y-118658571D01*
X122434286Y-118730000D01*
X122577144Y-118872857D01*
X122648572Y-119015714D01*
X122720001Y-119301429D01*
X122720001Y-119515714D01*
X122648572Y-119801429D01*
X122577144Y-119944286D01*
X122434286Y-120087143D01*
X122220001Y-120158571D01*
X121862858Y-120158571D01*
X123291429Y-119730000D02*
X124005715Y-119730000D01*
X123148572Y-120158571D02*
X123648572Y-118658571D01*
X124148572Y-120158571D01*
X124434286Y-118658571D02*
X125291429Y-118658571D01*
X124862858Y-120158571D02*
X124862858Y-118658571D01*
X147028572Y-119587143D02*
X148171429Y-119587143D01*
X130518572Y-119587143D02*
X131661429Y-119587143D01*
X115278572Y-119587143D02*
X116421429Y-119587143D01*
X112738572Y-80217143D02*
X113881429Y-80217143D01*
X112738572Y-91647143D02*
X113881429Y-91647143D01*
X113310000Y-92218571D02*
X113310000Y-91075714D01*
X159728572Y-119587143D02*
X160871429Y-119587143D01*
X160300000Y-120158571D02*
X160300000Y-119015714D01*
X126708572Y-119587143D02*
X127851429Y-119587143D01*
X127280000Y-120158571D02*
X127280000Y-119015714D01*
X143218572Y-119587143D02*
X144361429Y-119587143D01*
X143790000Y-120158571D02*
X143790000Y-119015714D01*
D12*
X162820000Y-77360000D02*
X112020000Y-77360000D01*
X112020000Y-72280000D02*
X162820000Y-72280000D01*
X112020000Y-74820000D02*
X114560000Y-74820000D01*
X114560000Y-74820000D02*
X114560000Y-77360000D01*
X112020000Y-72280000D02*
X112020000Y-77360000D01*
X162820000Y-77360000D02*
X162820000Y-72280000D01*
D13*
X113250000Y-125920000D02*
X128450000Y-125920000D01*
X113250000Y-127020000D02*
X128450000Y-127020000D01*
X113250000Y-127520000D02*
X113250000Y-117120000D01*
X113250000Y-117120000D02*
X128450000Y-117120000D01*
X128450000Y-117120000D02*
X128450000Y-127520000D01*
X118350000Y-127020000D02*
X118350000Y-127420000D01*
X123350000Y-127020000D02*
X123350000Y-127420000D01*
X113010000Y-124920000D02*
X113010000Y-127760000D01*
X113010000Y-127760000D02*
X115850000Y-127760000D01*
X129760000Y-125920000D02*
X144960000Y-125920000D01*
X129760000Y-127020000D02*
X144960000Y-127020000D01*
X129760000Y-127520000D02*
X129760000Y-117120000D01*
X129760000Y-117120000D02*
X144960000Y-117120000D01*
X144960000Y-117120000D02*
X144960000Y-127520000D01*
X134860000Y-127020000D02*
X134860000Y-127420000D01*
X139860000Y-127020000D02*
X139860000Y-127420000D01*
X129520000Y-124920000D02*
X129520000Y-127760000D01*
X129520000Y-127760000D02*
X132360000Y-127760000D01*
X146270000Y-125920000D02*
X161470000Y-125920000D01*
X146270000Y-127020000D02*
X161470000Y-127020000D01*
X146270000Y-127520000D02*
X146270000Y-117120000D01*
X146270000Y-117120000D02*
X161470000Y-117120000D01*
X161470000Y-117120000D02*
X161470000Y-127520000D01*
X151370000Y-127020000D02*
X151370000Y-127420000D01*
X156370000Y-127020000D02*
X156370000Y-127420000D01*
X146030000Y-124920000D02*
X146030000Y-127760000D01*
X146030000Y-127760000D02*
X148870000Y-127760000D01*
X107505000Y-80685000D02*
X107505000Y-90885000D01*
X106405000Y-80685000D02*
X106405000Y-90885000D01*
X105905000Y-80685000D02*
X116305000Y-80685000D01*
X116305000Y-80685000D02*
X116305000Y-90885000D01*
X116305000Y-90885000D02*
X105905000Y-90885000D01*
X106405000Y-85785000D02*
X106005000Y-85785000D01*
X108505000Y-80445000D02*
X105665000Y-80445000D01*
X105665000Y-80445000D02*
X105665000Y-83285000D01*
X113465000Y-116225000D02*
X113465000Y-125025000D01*
X113465000Y-125025000D02*
X104265000Y-125025000D01*
X110765000Y-110325000D02*
X113465000Y-110325000D01*
X113465000Y-110325000D02*
X113465000Y-112225000D01*
X104265000Y-125025000D02*
X104265000Y-110325000D01*
X104265000Y-110325000D02*
X106865000Y-110325000D01*
D14*
X144425000Y-106145000D02*
X129185000Y-106145000D01*
X129185000Y-106145000D02*
X129185000Y-90905000D01*
X129185000Y-90905000D02*
X144425000Y-90905000D01*
X144425000Y-90905000D02*
X144425000Y-106145000D01*
D15*
X161340953Y-78176190D02*
X161340953Y-77676190D01*
X161531429Y-77676190D01*
X161579048Y-77700000D01*
X161602857Y-77723810D01*
X161626667Y-77771429D01*
X161626667Y-77842857D01*
X161602857Y-77890476D01*
X161579048Y-77914286D01*
X161531429Y-77938095D01*
X161340953Y-77938095D01*
X161793334Y-77676190D02*
X162102857Y-77676190D01*
X161936191Y-77866667D01*
X162007619Y-77866667D01*
X162055238Y-77890476D01*
X162079048Y-77914286D01*
X162102857Y-77961905D01*
X162102857Y-78080952D01*
X162079048Y-78128571D01*
X162055238Y-78152381D01*
X162007619Y-78176190D01*
X161864762Y-78176190D01*
X161817143Y-78152381D01*
X161793334Y-78128571D01*
D14*
X119516667Y-116472381D02*
X119183333Y-115996190D01*
X118945238Y-116472381D02*
X118945238Y-115472381D01*
X119326191Y-115472381D01*
X119421429Y-115520000D01*
X119469048Y-115567619D01*
X119516667Y-115662857D01*
X119516667Y-115805714D01*
X119469048Y-115900952D01*
X119421429Y-115948571D01*
X119326191Y-115996190D01*
X118945238Y-115996190D01*
X119945238Y-115948571D02*
X120278572Y-115948571D01*
X120421429Y-116472381D02*
X119945238Y-116472381D01*
X119945238Y-115472381D01*
X120421429Y-115472381D01*
X121183334Y-115948571D02*
X120850000Y-115948571D01*
X120850000Y-116472381D02*
X120850000Y-115472381D01*
X121326191Y-115472381D01*
X121850000Y-115472381D02*
X121850000Y-115710476D01*
X121611905Y-115615238D02*
X121850000Y-115710476D01*
X122088096Y-115615238D01*
X121707143Y-115900952D02*
X121850000Y-115710476D01*
X121992858Y-115900952D01*
X122611905Y-115472381D02*
X122611905Y-115710476D01*
X122373810Y-115615238D02*
X122611905Y-115710476D01*
X122850001Y-115615238D01*
X122469048Y-115900952D02*
X122611905Y-115710476D01*
X122754763Y-115900952D01*
X136026667Y-116472381D02*
X135693333Y-115996190D01*
X135455238Y-116472381D02*
X135455238Y-115472381D01*
X135836191Y-115472381D01*
X135931429Y-115520000D01*
X135979048Y-115567619D01*
X136026667Y-115662857D01*
X136026667Y-115805714D01*
X135979048Y-115900952D01*
X135931429Y-115948571D01*
X135836191Y-115996190D01*
X135455238Y-115996190D01*
X136455238Y-115948571D02*
X136788572Y-115948571D01*
X136931429Y-116472381D02*
X136455238Y-116472381D01*
X136455238Y-115472381D01*
X136931429Y-115472381D01*
X137693334Y-115948571D02*
X137360000Y-115948571D01*
X137360000Y-116472381D02*
X137360000Y-115472381D01*
X137836191Y-115472381D01*
X138360000Y-115472381D02*
X138360000Y-115710476D01*
X138121905Y-115615238D02*
X138360000Y-115710476D01*
X138598096Y-115615238D01*
X138217143Y-115900952D02*
X138360000Y-115710476D01*
X138502858Y-115900952D01*
X139121905Y-115472381D02*
X139121905Y-115710476D01*
X138883810Y-115615238D02*
X139121905Y-115710476D01*
X139360001Y-115615238D01*
X138979048Y-115900952D02*
X139121905Y-115710476D01*
X139264763Y-115900952D01*
X152536667Y-116472381D02*
X152203333Y-115996190D01*
X151965238Y-116472381D02*
X151965238Y-115472381D01*
X152346191Y-115472381D01*
X152441429Y-115520000D01*
X152489048Y-115567619D01*
X152536667Y-115662857D01*
X152536667Y-115805714D01*
X152489048Y-115900952D01*
X152441429Y-115948571D01*
X152346191Y-115996190D01*
X151965238Y-115996190D01*
X152965238Y-115948571D02*
X153298572Y-115948571D01*
X153441429Y-116472381D02*
X152965238Y-116472381D01*
X152965238Y-115472381D01*
X153441429Y-115472381D01*
X154203334Y-115948571D02*
X153870000Y-115948571D01*
X153870000Y-116472381D02*
X153870000Y-115472381D01*
X154346191Y-115472381D01*
X154870000Y-115472381D02*
X154870000Y-115710476D01*
X154631905Y-115615238D02*
X154870000Y-115710476D01*
X155108096Y-115615238D01*
X154727143Y-115900952D02*
X154870000Y-115710476D01*
X155012858Y-115900952D01*
X155631905Y-115472381D02*
X155631905Y-115710476D01*
X155393810Y-115615238D02*
X155631905Y-115710476D01*
X155870001Y-115615238D01*
X155489048Y-115900952D02*
X155631905Y-115710476D01*
X155774763Y-115900952D01*
X117857381Y-87118333D02*
X117381190Y-87451667D01*
X117857381Y-87689762D02*
X116857381Y-87689762D01*
X116857381Y-87308809D01*
X116905000Y-87213571D01*
X116952619Y-87165952D01*
X117047857Y-87118333D01*
X117190714Y-87118333D01*
X117285952Y-87165952D01*
X117333571Y-87213571D01*
X117381190Y-87308809D01*
X117381190Y-87689762D01*
X117333571Y-86689762D02*
X117333571Y-86356428D01*
X117857381Y-86213571D02*
X117857381Y-86689762D01*
X116857381Y-86689762D01*
X116857381Y-86213571D01*
X117333571Y-85451666D02*
X117333571Y-85785000D01*
X117857381Y-85785000D02*
X116857381Y-85785000D01*
X116857381Y-85308809D01*
X116857381Y-84785000D02*
X117095476Y-84785000D01*
X117000238Y-85023095D02*
X117095476Y-84785000D01*
X117000238Y-84546904D01*
X117285952Y-84927857D02*
X117095476Y-84785000D01*
X117285952Y-84642142D01*
X116857381Y-84023095D02*
X117095476Y-84023095D01*
X117000238Y-84261190D02*
X117095476Y-84023095D01*
X117000238Y-83784999D01*
X117285952Y-84165952D02*
X117095476Y-84023095D01*
X117285952Y-83880237D01*
X115067381Y-121008333D02*
X114591190Y-121341667D01*
X115067381Y-121579762D02*
X114067381Y-121579762D01*
X114067381Y-121198809D01*
X114115000Y-121103571D01*
X114162619Y-121055952D01*
X114257857Y-121008333D01*
X114400714Y-121008333D01*
X114495952Y-121055952D01*
X114543571Y-121103571D01*
X114591190Y-121198809D01*
X114591190Y-121579762D01*
X114543571Y-120579762D02*
X114543571Y-120246428D01*
X115067381Y-120103571D02*
X115067381Y-120579762D01*
X114067381Y-120579762D01*
X114067381Y-120103571D01*
X114543571Y-119341666D02*
X114543571Y-119675000D01*
X115067381Y-119675000D02*
X114067381Y-119675000D01*
X114067381Y-119198809D01*
X114067381Y-118675000D02*
X114305476Y-118675000D01*
X114210238Y-118913095D02*
X114305476Y-118675000D01*
X114210238Y-118436904D01*
X114495952Y-118817857D02*
X114305476Y-118675000D01*
X114495952Y-118532142D01*
X114067381Y-117913095D02*
X114305476Y-117913095D01*
X114210238Y-118151190D02*
X114305476Y-117913095D01*
X114210238Y-117674999D01*
X114495952Y-118055952D02*
X114305476Y-117913095D01*
X114495952Y-117770237D01*
X139797381Y-99858333D02*
X139321190Y-100191667D01*
X139797381Y-100429762D02*
X138797381Y-100429762D01*
X138797381Y-100048809D01*
X138845000Y-99953571D01*
X138892619Y-99905952D01*
X138987857Y-99858333D01*
X139130714Y-99858333D01*
X139225952Y-99905952D01*
X139273571Y-99953571D01*
X139321190Y-100048809D01*
X139321190Y-100429762D01*
X139273571Y-99429762D02*
X139273571Y-99096428D01*
X139797381Y-98953571D02*
X139797381Y-99429762D01*
X138797381Y-99429762D01*
X138797381Y-98953571D01*
X139273571Y-98191666D02*
X139273571Y-98525000D01*
X139797381Y-98525000D02*
X138797381Y-98525000D01*
X138797381Y-98048809D01*
X138797381Y-97525000D02*
X139035476Y-97525000D01*
X138940238Y-97763095D02*
X139035476Y-97525000D01*
X138940238Y-97286904D01*
X139225952Y-97667857D02*
X139035476Y-97525000D01*
X139225952Y-97382142D01*
X138797381Y-96763095D02*
X139035476Y-96763095D01*
X138940238Y-97001190D02*
X139035476Y-96763095D01*
X138940238Y-96524999D01*
X139225952Y-96905952D02*
X139035476Y-96763095D01*
X139225952Y-96620237D01*
X135035000Y-103096904D02*
X134987381Y-103192142D01*
X134987381Y-103334999D01*
X135035000Y-103477857D01*
X135130238Y-103573095D01*
X135225476Y-103620714D01*
X135415952Y-103668333D01*
X135558810Y-103668333D01*
X135749286Y-103620714D01*
X135844524Y-103573095D01*
X135939762Y-103477857D01*
X135987381Y-103334999D01*
X135987381Y-103239761D01*
X135939762Y-103096904D01*
X135892143Y-103049285D01*
X135558810Y-103049285D01*
X135558810Y-103239761D01*
X135987381Y-102620714D02*
X134987381Y-102620714D01*
X135987381Y-102049285D01*
X134987381Y-102049285D01*
X135987381Y-101573095D02*
X134987381Y-101573095D01*
X134987381Y-101335000D01*
X135035000Y-101192142D01*
X135130238Y-101096904D01*
X135225476Y-101049285D01*
X135415952Y-101001666D01*
X135558810Y-101001666D01*
X135749286Y-101049285D01*
X135844524Y-101096904D01*
X135939762Y-101192142D01*
X135987381Y-101335000D01*
X135987381Y-101573095D01*
X138527381Y-103049286D02*
X137527381Y-103049286D01*
X138003571Y-103049286D02*
X138003571Y-102477857D01*
X138527381Y-102477857D02*
X137527381Y-102477857D01*
X137527381Y-102144524D02*
X138527381Y-101811191D01*
X137527381Y-101477857D01*
X135035000Y-95476904D02*
X134987381Y-95572142D01*
X134987381Y-95714999D01*
X135035000Y-95857857D01*
X135130238Y-95953095D01*
X135225476Y-96000714D01*
X135415952Y-96048333D01*
X135558810Y-96048333D01*
X135749286Y-96000714D01*
X135844524Y-95953095D01*
X135939762Y-95857857D01*
X135987381Y-95714999D01*
X135987381Y-95619761D01*
X135939762Y-95476904D01*
X135892143Y-95429285D01*
X135558810Y-95429285D01*
X135558810Y-95619761D01*
X135987381Y-95000714D02*
X134987381Y-95000714D01*
X135987381Y-94429285D01*
X134987381Y-94429285D01*
X135987381Y-93953095D02*
X134987381Y-93953095D01*
X134987381Y-93715000D01*
X135035000Y-93572142D01*
X135130238Y-93476904D01*
X135225476Y-93429285D01*
X135415952Y-93381666D01*
X135558810Y-93381666D01*
X135749286Y-93429285D01*
X135844524Y-93476904D01*
X135939762Y-93572142D01*
X135987381Y-93715000D01*
X135987381Y-93953095D01*
X138527381Y-94834047D02*
X138527381Y-95310238D01*
X137527381Y-95310238D01*
X137527381Y-94643571D02*
X138527381Y-94310238D01*
X137527381Y-93976904D01*
M02*
