M48
INCH,TZ
T1C0.030
T2C0.039
T3C0.039
T4C0.058
T5C0.118
%
G90
G05
T1
X51360Y-36289
X51360Y-41289
X52360Y-36289
X52360Y-41289
X53360Y-36289
X53360Y-41289
X54360Y-36289
X54360Y-41289
X55360Y-36289
X55360Y-41289
X56360Y-36289
X56360Y-41289
T3
X44602Y-28957
X44602Y-29957
X45602Y-28957
X45602Y-29957
X46602Y-28957
X46602Y-29957
X47602Y-28957
X47602Y-29957
X48602Y-28957
X48602Y-29957
X49602Y-28957
X49602Y-29957
X50602Y-28957
X50602Y-29957
X51602Y-28957
X51602Y-29957
X52602Y-28957
X52602Y-29957
X53602Y-28957
X53602Y-29957
X54602Y-28957
X54602Y-29957
X55602Y-28957
X55602Y-29957
X56602Y-28957
X56602Y-29957
X57602Y-28957
X57602Y-29957
X58602Y-28957
X58602Y-29957
X59602Y-28957
X59602Y-29957
X60602Y-28957
X60602Y-29957
X61602Y-28957
X61602Y-29957
X62602Y-28957
X62602Y-29957
X63602Y-28957
X63602Y-29957
T4
X43860Y-32789
X43860Y-34758
X45610Y-48039
X47579Y-48039
X49547Y-48039
X52110Y-48039
X54079Y-48039
X56047Y-48039
X58610Y-48039
X60579Y-48039
X62547Y-48039
T5
X42685Y-29457
X42685Y-48748
X65520Y-29457
X65520Y-48748
T2
X42467Y-43789G85X43254Y-43789
G05
X42467Y-46152G85X43254Y-46152
G05
X44711Y-45364G85X44711Y-44577
G05
T0
M30
